<?xml version="1.0" encoding="UTF-8"?>
<!-- Generator: visioncortex VTracer 0.6.4 -->
<svg version="1.1" xmlns="http://www.w3.org/2000/svg" width="944" height="483" viewBox="0 0 944 483">
<path d="M0 0 C0.61875 0.66 1.2375 1.32 1.875 2 C3.75637427 4.2284549 3.75637427 4.2284549 6 4 C7.2340748 5.43419504 8.46215372 6.87445743 9.64453125 8.3515625 C12.38298457 11.68190054 15.57132723 14.5912655 18.6875 17.5625 C21 20 21 20 22.0625 22.1875 C23.27341861 24.52860931 24.60177814 25.04071126 27 26 C26.41632611 32.30367803 24.95928381 37.98660063 23 44 C22.34 44 21.68 44 21 44 C21.33 44.99 21.66 45.98 22 47 C21.9430892 48.39716008 21.8555944 49.79317401 21.75 51.1875 C21.64063721 63.63663103 27.42509015 76.37037747 35.3125 85.75 C50.18678091 98.20288634 64.92445162 101.05630756 83.87109375 99.4140625 C86.28911348 99.08577819 86.28911348 99.08577819 89 97 C91.13337032 95.69245045 92.41943108 94.98127197 94.9375 95.0625 C98.65912088 96.75414585 101.32510493 99.57081043 103.0625 103.25 C103.371875 103.8275 103.68125 104.405 104 105 C104.6084375 105.12375 105.216875 105.2475 105.84375 105.375 C108.66551787 106.19290373 109.59707494 107.48878492 111.4375 109.75 C113.49668259 112.22455418 115.5036298 114.49243802 117.8125 116.75 C119.83575632 118.83106365 120.79950564 120.41431983 122 123 C120.42516875 124.17811803 118.83977627 125.34212826 117.25 126.5 C115.92742187 127.47453125 115.92742187 127.47453125 114.578125 128.46875 C112 130 112 130 108 130 C108 130.66 108 131.32 108 132 C106.453125 132.4021875 106.453125 132.4021875 104.875 132.8125 C102.34231103 133.52023744 100.52537354 134.26368137 98.1875 135.5625 C94.54557071 137.2049387 91.51260394 137.52319012 87.5625 137.7890625 C84.93827267 137.96328412 84.93827267 137.96328412 82.13671875 138.51953125 C78.64780323 139.05394795 75.34044342 139.09653161 71.8125 139.0625 C70.60207031 139.05347656 69.39164062 139.04445312 68.14453125 139.03515625 C67.10683594 139.02355469 66.06914062 139.01195312 65 139 C64.01 139 63.02 139 62 139 C52.57118135 138.49828304 44.37692184 136.39788397 36 132 C35.34 132 34.68 132 34 132 C34 131.34 34 130.68 34 130 C33.27425781 129.88914063 32.54851562 129.77828125 31.80078125 129.6640625 C24.00656972 127.81606256 16.37182761 121.82198077 11 116 C11 115.34 11 114.68 11 114 C10.34 114 9.68 114 9 114 C9 113.34 9 112.68 9 112 C7.515 111.505 7.515 111.505 6 111 C6 110.34 6 109.68 6 109 C5.39671875 108.74476563 4.7934375 108.48953125 4.171875 108.2265625 C-4.88438191 103.1120577 -11.16350093 85.5896095 -13.93017578 75.93603516 C-14.70639479 72.97385193 -15.37666936 69.997752 -16 67 C-16.15082031 66.278125 -16.30164063 65.55625 -16.45703125 64.8125 C-16.77262735 62.86001213 -16.91527239 60.97697767 -17 59 C-17.0515625 57.9275 -17.103125 56.855 -17.15625 55.75 C-17.64785786 36.08568555 -12.68926723 17.00431354 -1 1 C-0.67 0.67 -0.34 0.34 0 0 Z " fill="#94A3A5" transform="translate(129,81)"/>
<path d="M0 0 C2.48527837 2.17083004 4.85240612 4.4072697 7.1875 6.73828125 C7.88359375 7.42277344 8.5796875 8.10726562 9.296875 8.8125 C25.69697694 26.00718052 31.75941588 48.68557633 31.67504883 71.84350586 C31.28102059 88.29684698 26.61919463 101.74124971 18.1875 115.73828125 C13.80632956 115.73828125 11.91627384 112.99201532 8.953125 110.078125 C8.05699493 109.20408775 8.05699493 109.20408775 7.14276123 108.31239319 C5.88124361 107.07484659 4.62396067 105.83297081 3.37060547 104.5871582 C1.44968914 102.68783338 -0.49850015 100.81980944 -2.44921875 98.95117188 C-3.67107327 97.7453132 -4.89118536 96.53768592 -6.109375 95.328125 C-6.69571716 94.77366196 -7.28205933 94.21919891 -7.88616943 93.64793396 C-9.44286564 92.06461961 -10.71538775 90.66945898 -11.8125 88.73828125 C-11.73144531 85.07641602 -11.73144531 85.07641602 -10.8125 81.73828125 C-7.6801761 69.27043116 -9.04193942 55.57369817 -15.1328125 44.29296875 C-16.56991105 41.97633447 -18.10797491 39.86495507 -19.8125 37.73828125 C-20.36421875 37.04992187 -20.9159375 36.3615625 -21.484375 35.65234375 C-29.06278388 27.19950307 -40.53144881 21.75527084 -51.8125 20.73828125 C-52.57433594 20.66867188 -53.33617187 20.5990625 -54.12109375 20.52734375 C-58.13165545 20.35612108 -61.26365997 20.54180519 -65.08740234 21.91064453 C-69.10367684 23.25228912 -72.57092642 24.36819023 -76.8125 23.73828125 C-82.88175688 20.65688701 -87.30403361 14.93360377 -91.75 9.92578125 C-93.02628432 8.55910898 -94.30685484 7.19642614 -95.59179688 5.83789062 C-98.71681694 2.51542915 -101.77844913 -0.85607366 -104.8125 -4.26171875 C-103.8125 -7.26171875 -103.8125 -7.26171875 -101.109375 -8.9453125 C-67.18287773 -25.72174122 -29.8996837 -24.04432897 0 0 Z " fill="#68286C" transform="translate(256.8125,64.26171875)"/>
<path d="M0 0 C0.97839844 0.76376953 0.97839844 0.76376953 1.9765625 1.54296875 C2.56695313 1.95933594 3.15734375 2.37570313 3.765625 2.8046875 C12.81291092 9.68310351 19.09019395 20.72701626 21.9765625 31.54296875 C22.21117187 32.40148437 22.44578125 33.26 22.6875 34.14453125 C25.97447126 48.61574239 23.02451092 63.64207417 15.51171875 76.32421875 C6.66103236 89.11605047 -4.36923991 97.43353917 -19.53515625 101.16015625 C-33.3926037 103.29207124 -46.43246422 100.32693614 -58.0234375 92.54296875 C-70.59737714 82.91892698 -78.64816492 70.39427762 -81.0234375 54.54296875 C-81.98639796 37.63560529 -79.13490531 22.40890282 -67.7109375 9.23046875 C-49.99696244 -9.19206532 -21.89881974 -16.12549454 0 0 Z M-49.0234375 15.54296875 C-50.0340625 16.28546875 -51.0446875 17.02796875 -52.0859375 17.79296875 C-59.32298025 24.00697404 -62.56642291 33.19574783 -63.8359375 42.41796875 C-64.62431614 53.52382431 -61.14554795 63.8401113 -54.390625 72.6796875 C-48.56333272 78.9270869 -41.22344324 83.17370175 -32.66796875 83.78125 C-24.96272703 83.93048506 -18.70642639 83.76588102 -12.0234375 79.54296875 C-11.32734375 79.11886719 -10.63125 78.69476563 -9.9140625 78.2578125 C-1.36714572 72.49025024 3.6836267 63.48761167 5.9765625 53.54296875 C7.2046827 42.66533272 5.60543189 32.3107719 -0.7734375 23.23046875 C-1.82567154 21.97457651 -2.90985912 20.74480276 -4.0234375 19.54296875 C-4.58675781 18.91519531 -5.15007812 18.28742188 -5.73046875 17.640625 C-11.96372249 11.43361654 -20.46300701 8.53133149 -29.2109375 8.10546875 C-36.68952754 8.96366761 -43.00786125 10.89456892 -49.0234375 15.54296875 Z " fill="#682A6C" transform="translate(671.0234375,59.45703125)"/>
<path d="M0 0 C3.68869738 3.7028903 4.50444441 6.17944029 4.54589844 11.35083008 C4.56561707 12.6117598 4.58533569 13.87268951 4.60565186 15.17182922 C4.60731475 16.53772945 4.60854576 17.90363026 4.609375 19.26953125 C4.62436397 20.67487997 4.64109263 22.08021111 4.65948486 23.48551941 C4.70309124 27.1729312 4.7231422 30.86010541 4.73822021 34.54772949 C4.75781584 38.3151653 4.79978296 42.08234543 4.83984375 45.84960938 C4.91507286 53.23300407 4.96540805 60.6162912 5 68 C10.39152944 61.05306868 15.74813811 54.11053194 20.75 46.875 C25.69118349 39.80141698 30.77088447 32.84041809 35.90673828 25.90722656 C40.31548509 19.94932758 44.63934243 13.93745014 48.9140625 7.8828125 C54.40127389 0.29936306 54.40127389 0.29936306 57 -1 C60.75225691 -1.41691743 62.54011122 -1.27593327 65.8125 0.6875 C69.98652845 5.10004437 69.15309775 10.85741518 69.16113281 16.64233398 C69.16858017 17.93107422 69.16858017 17.93107422 69.17617798 19.24584961 C69.19074652 22.07927255 69.19759172 24.91263956 69.203125 27.74609375 C69.20887956 29.7199758 69.21463726 31.69385784 69.22039795 33.66773987 C69.23089194 37.80266581 69.2367455 41.93757239 69.24023438 46.07250977 C69.24572447 51.36638399 69.26977031 56.66000173 69.29820633 61.95379543 C69.31684137 66.02961473 69.32203871 70.10537224 69.32357025 74.18123055 C69.32659389 76.13283762 69.33461266 78.08444368 69.34775543 80.03600883 C69.36483862 82.76696143 69.36293047 85.49728691 69.35644531 88.22827148 C69.3656601 89.03106033 69.37487488 89.83384918 69.3843689 90.66096497 C69.34847723 95.49374807 68.69755555 98.825799 66 103 C62.48175489 105.34549674 61.14224306 105.57991403 57 105 C53.83047705 102.46956034 52.1983164 100.95210146 51.36076355 96.93107605 C51.3507708 95.21565361 51.3507708 95.21565361 51.34057617 93.46557617 C51.32093307 92.16460495 51.30128998 90.86363373 51.28105164 89.52323914 C51.2844946 88.11314762 51.28847959 86.70305733 51.29296875 85.29296875 C51.27984698 83.8427778 51.26454126 82.3926051 51.24714661 80.94245911 C51.20733846 77.13658993 51.19710899 73.33119929 51.19311523 69.52514648 C51.1837757 65.63705975 51.14635717 61.74925326 51.11132812 57.86132812 C51.0467952 50.24088297 51.01352014 42.62072455 51 35 C50.64023071 35.49814209 50.28046143 35.99628418 49.90979004 36.50952148 C47.09936523 40.40087891 44.28894043 44.29223633 41.47851562 48.18359375 C40.90562302 48.97683044 40.33273041 49.77006714 39.74247742 50.58734131 C38.57224316 52.20766409 37.40200589 53.8279847 36.23176575 55.44830322 C35.6671312 56.23009949 35.10249664 57.01189575 34.52075195 57.81738281 C34.01735794 58.51438293 33.51396393 59.21138306 32.99531555 59.92950439 C31.41737497 62.11440713 29.83954067 64.29938658 28.26171875 66.484375 C26.05698797 69.53718117 23.85113417 72.58917179 21.64453125 75.640625 C21.0920874 76.40503906 20.53964355 77.16945313 19.97045898 77.95703125 C18.87592455 79.47077994 17.78040368 80.98381593 16.68383789 82.49609375 C14.1233227 86.03269533 11.5857427 89.58115194 9.1015625 93.171875 C8.64998779 93.81995117 8.19841309 94.46802734 7.7331543 95.13574219 C6.89647261 96.33960526 6.06667771 97.54829755 5.24536133 98.76269531 C3.1614564 101.75120957 1.5382524 103.88452685 -2 105 C-8.07216495 104.68041237 -8.07216495 104.68041237 -10.875 102.625 C-13.68675847 98.5635711 -13.15486301 94.01393944 -13.16113281 89.29345703 C-13.16609772 88.40372192 -13.17106262 87.51398682 -13.17617798 86.59729004 C-13.19079585 83.65078969 -13.19760071 80.70434317 -13.203125 77.7578125 C-13.20887641 75.71141559 -13.21463414 73.6650187 -13.22039795 71.61862183 C-13.23090663 67.32631173 -13.23675029 63.03402037 -13.24023438 58.74169922 C-13.24572125 53.24140846 -13.26975406 47.74136498 -13.29820633 42.24115181 C-13.31682794 38.01353227 -13.32203804 33.78597237 -13.32357025 29.55831528 C-13.32659798 27.53052289 -13.33463053 25.50273158 -13.34775543 23.4749794 C-13.36480711 20.63823864 -13.36293788 17.80210322 -13.35644531 14.96533203 C-13.3656601 14.1277536 -13.37487488 13.29017517 -13.3843689 12.42721558 C-13.35106007 7.78217066 -12.97914499 4.79293261 -10 1 C-6.62771107 -1.55828815 -3.95120002 -1.23475 0 0 Z " fill="#692A6D" transform="translate(503,56)"/>
<path d="M0 0 C9.38401865 2.22671629 15.22720272 14.71118364 20.484375 22.28125 C23.64492368 26.83058323 26.87459043 31.32708176 30.125 35.8125 C30.65891357 36.55016602 31.19282715 37.28783203 31.74291992 38.04785156 C32.83205974 39.55229841 33.92149864 41.05652879 35.01123047 42.56054688 C37.90688369 46.55862327 40.79703713 50.56067049 43.6875 54.5625 C44.21529053 55.29267334 44.74308105 56.02284668 45.28686523 56.77514648 C45.79032471 57.47196533 46.29378418 58.16878418 46.8125 58.88671875 C47.24820313 59.48959717 47.68390625 60.09247559 48.1328125 60.71362305 C50.32545094 63.76190007 52.50599984 66.81874214 54.6875 69.875 C54.69336624 69.10936234 54.69923248 68.34372467 54.70527649 67.55488586 C54.76324063 60.33059791 54.83533816 53.10665338 54.92321491 45.88267231 C54.96789482 42.16895541 55.00715586 38.45534761 55.03393555 34.74145508 C55.05999278 31.15563327 55.10041143 27.57023181 55.15068626 23.98467064 C55.16733879 22.61843288 55.17886315 21.25212244 55.18511391 19.8857975 C55.19477161 17.96842502 55.2245458 16.05118611 55.25512695 14.1340332 C55.26623001 13.04371292 55.27733307 11.95339264 55.28877258 10.83003235 C55.74001236 7.48582257 56.72296984 5.59312572 58.6875 2.875 C61.21049916 0.96100064 62.49508679 0.87099139 65.6875 0.9375 C69.60617673 2.16208648 70.5483177 3.3784375 72.6875 6.875 C73.25551567 9.92334042 73.21401728 12.9146034 73.17333984 16.00805664 C73.17713654 16.91919724 73.18093323 17.83033783 73.18484497 18.76908875 C73.19224235 21.77479698 73.17088074 24.77953422 73.1484375 27.78515625 C73.14605268 29.87592963 73.14514783 31.96670518 73.1456604 34.05747986 C73.14253387 38.43632448 73.1259785 42.81484134 73.09912109 47.19360352 C73.06512064 52.80825898 73.05749322 58.42255471 73.05901146 64.03730106 C73.05846782 68.35326068 73.04750198 72.66914156 73.03300858 76.985075 C73.02664197 79.05554038 73.022702 81.12601469 73.02122116 83.19648933 C73.01688794 86.08826039 72.99938689 88.97964895 72.97802734 91.87133789 C72.97893372 92.72807098 72.97984009 93.58480408 72.98077393 94.46749878 C72.97224396 95.25670212 72.96371399 96.04590546 72.95492554 96.85902405 C72.95157385 97.54203111 72.94822216 98.22503817 72.94476891 98.92874241 C72.53164246 102.05407339 71.49262552 104.24879126 69 106.1875 C65.43092374 107.24857673 63.26498785 106.92357402 59.6875 105.875 C55.14310164 101.67177043 51.68516473 96.19805918 48.1875 91.125 C43.77995863 84.80380459 39.27913894 78.56370321 34.6875 72.375 C29.61707357 65.53538091 24.64306763 58.63762442 19.76953125 51.65625 C17.40434305 48.27450526 14.99925339 44.93305188 12.51757812 41.63549805 C11.9852356 40.92757614 11.45289307 40.21965424 10.90441895 39.49028015 C10.50283569 38.9572377 10.10125244 38.42419525 9.6875 37.875 C9.68163376 38.64063766 9.67576752 39.40627533 9.66972351 40.19511414 C9.61175937 47.41940209 9.53966184 54.64334662 9.45178509 61.86732769 C9.40710518 65.58104459 9.36784414 69.29465239 9.34106445 73.00854492 C9.31500722 76.59436673 9.27458857 80.17976819 9.22431374 83.76532936 C9.20766121 85.13156712 9.19613685 86.49787756 9.18988609 87.8642025 C9.18022839 89.78157498 9.1504542 91.69881389 9.11987305 93.6159668 C9.10876999 94.70628708 9.09766693 95.79660736 9.08622742 96.91996765 C8.63121964 100.2921027 7.70800827 102.15684534 5.6875 104.875 C2.6875 106.875 2.6875 106.875 -0.8125 106.6875 C-4.19012534 105.9034084 -5.34563985 105.60675021 -7.3125 102.875 C-8.99414582 99.51170837 -8.48731983 95.70703591 -8.50537109 92.0065918 C-8.51354858 91.087742 -8.52172607 90.16889221 -8.53015137 89.22219849 C-8.55502148 86.17287859 -8.57152498 83.12360528 -8.5859375 80.07421875 C-8.59126118 79.03420023 -8.59658485 77.99418171 -8.60206985 76.92264748 C-8.62880767 71.41857261 -8.6481811 65.91452047 -8.66259766 60.41040039 C-8.67925268 54.72047393 -8.72403613 49.03112588 -8.7749691 43.34141827 C-8.80859616 38.97053854 -8.8201701 34.59979691 -8.82582474 30.22879982 C-8.8325491 28.13119902 -8.84780175 26.03360769 -8.87171555 23.93613243 C-8.90327396 21.0008035 -8.90341782 18.06704528 -8.89599609 15.1315918 C-8.91240143 14.26439011 -8.92880676 13.39718842 -8.94570923 12.50370789 C-8.90066907 8.15411546 -8.72081306 6.40503241 -5.98306274 2.85115051 C-3.3125 0.875 -3.3125 0.875 0 0 Z " fill="#682B6D" transform="translate(394.3125,54.125)"/>
<path d="M0 0 C4.21321883 3.48698862 6.0557301 6.79044304 7.93505859 11.87548828 C8.31430733 12.88418976 8.31430733 12.88418976 8.70121765 13.91326904 C9.53007664 16.12764783 10.33926155 18.34867388 11.1484375 20.5703125 C11.72867618 22.13235059 12.31012947 23.69393798 12.89273071 25.25509644 C14.42451555 29.36972983 15.9397031 33.49028435 17.45147705 37.61230469 C18.96811137 41.73872077 20.5002405 45.85936953 22.03125 49.98046875 C24.0811489 55.50090941 26.12124748 61.02475541 28.14795303 66.5537529 C30.20090607 72.15374828 32.27014528 77.74219577 34.44628906 83.29589844 C34.78777985 84.17817108 35.12927063 85.06044373 35.48110962 85.9694519 C36.07172255 87.4873567 36.6742634 89.00071974 37.2930603 90.50735474 C39.04053693 95.03471772 39.17567309 98.29513982 38 103 C35.875 105.5 35.875 105.5 33 107 C27.12312676 106.8986746 27.12312676 106.8986746 24.41674805 104.7331543 C22.74831442 102.69210479 21.91145641 100.78850256 20.95703125 98.33203125 C20.63968018 97.52741455 20.3223291 96.72279785 19.99536133 95.89379883 C19.60501709 94.87697021 19.21467285 93.8601416 18.8125 92.8125 C17.554375 89.574375 16.29625 86.33625 15 83 C2.79 83 -9.42 83 -22 83 C-24.5063818 89.44353897 -24.5063818 89.44353897 -26.99536133 95.89379883 C-27.3127124 96.69841553 -27.63006348 97.50303223 -27.95703125 98.33203125 C-28.27647705 99.15421143 -28.59592285 99.9763916 -28.92504883 100.82348633 C-30.04724649 103.09566261 -31.01989142 104.42925397 -33 106 C-36.40333226 106.80442399 -38.92838082 107.31858949 -42.3125 106.3125 C-44.5092909 104.60388485 -45.21786595 103.70191764 -46 101 C-45.57043326 94.3145751 -43.651289 88.66300965 -41.2734375 82.43359375 C-40.89346115 81.41737442 -40.5134848 80.40115509 -40.12199402 79.35414124 C-38.88194411 76.04514967 -37.62910591 72.7411874 -36.375 69.4375 C-35.51377809 67.15382055 -34.65302347 64.86996483 -33.79272461 62.5859375 C-32.04776244 57.95869416 -30.29672702 53.33380946 -28.54150391 48.71044922 C-26.54550992 43.44920943 -24.56924883 38.18094253 -22.6038208 32.90821838 C-21.24960214 29.28053532 -19.88473667 25.65693213 -18.5166626 22.03445435 C-17.88341362 20.35241333 -17.25410155 18.66888461 -16.62884521 16.9838562 C-15.76565306 14.66166302 -14.88697225 12.34594476 -14.00390625 10.03125 C-13.75674362 9.35554459 -13.50958099 8.67983917 -13.25492859 7.98365784 C-10.60571947 1.14566787 -7.37365755 -1.03489931 0 0 Z M-4 33 C-8.31255832 43.57738102 -12.55855649 54.10209556 -16 65 C-8.08 65 -0.16 65 8 65 C7.26601159 60.59606951 6.52701111 57.3119355 5.00390625 53.234375 C4.61009766 52.17992188 4.21628906 51.12546875 3.81054688 50.0390625 C3.39869141 48.95367187 2.98683594 47.86828125 2.5625 46.75 C2.15451172 45.64914063 1.74652344 44.54828125 1.32617188 43.4140625 C0.93107422 42.36476563 0.53597656 41.31546875 0.12890625 40.234375 C-0.23130615 39.27756836 -0.59151855 38.32076172 -0.96264648 37.33496094 C-1.89028041 34.87030965 -1.89028041 34.87030965 -4 33 Z " fill="#682B6C" transform="translate(852,54)"/>
<path d="M0 0 C2.65155694 2.11512657 3.83055939 4.41755809 5.171875 7.49609375 C5.58179688 8.43018066 5.99171875 9.36426758 6.4140625 10.32666016 C6.85492187 11.3532373 7.29578125 12.37981445 7.75 13.4375 C8.21664062 14.5104834 8.68328125 15.5834668 9.1640625 16.68896484 C15.14277717 30.51474253 20.90121662 44.43594346 26.65411377 58.3568573 C26.91907654 58.99722427 27.18403931 59.63759125 27.45703125 60.29736328 C27.71049316 60.9121051 27.96395508 61.52684692 28.22509766 62.16021729 C28.75667132 63.42228605 29.30411423 64.67775317 29.86474609 65.92718506 C31.15360767 68.80817531 32 70.80364747 32 74 C32.66 74 33.32 74 34 74 C34.19444702 72.89754944 34.19444702 72.89754944 34.39282227 71.77282715 C34.95393136 69.21038381 35.69162076 67.04194787 36.71484375 64.63476562 C37.06611328 63.80199097 37.41738281 62.96921631 37.77929688 62.11120605 C38.16150391 61.21857056 38.54371094 60.32593506 38.9375 59.40625 C39.33646484 58.46430786 39.73542969 57.52236572 40.14648438 56.55187988 C41.42657582 53.53269064 42.71321439 50.51634135 44 47.5 C44.83505996 45.53273224 45.66969931 43.56528588 46.50390625 41.59765625 C48.16475252 37.6823866 49.83208254 33.76996889 51.50390625 29.859375 C53.19627557 25.89791825 54.86848348 21.92872494 56.52734375 17.953125 C56.93275391 16.98862427 57.33816406 16.02412354 57.75585938 15.03039551 C58.52467866 13.2010345 59.2880006 11.36935013 60.04492188 9.53503418 C60.38974609 8.71845337 60.73457031 7.90187256 61.08984375 7.06054688 C61.38753662 6.3460437 61.68522949 5.63154053 61.99194336 4.89538574 C63.48705797 2.08421541 65.15951235 0.42024383 68 -1 C71.95342702 -1.5271236 73.56877682 -1.2844238 76.9375 0.9375 C79.50788127 4.75412674 79.09781308 6.24076275 78.48773193 10.6072998 C77.73266179 14.31149952 76.38919966 17.60568312 74.8515625 21.046875 C74.52700577 21.80048309 74.20244904 22.55409119 73.86805725 23.33053589 C72.79810647 25.8086563 71.71166407 28.27916856 70.625 30.75 C69.47721178 33.39430002 68.33340947 36.04030399 67.18955994 38.68630981 C66.38656333 40.54264208 65.58206215 42.39832416 64.77613831 44.25338745 C61.72301409 51.28907113 58.74005399 58.35224531 55.78515625 65.4296875 C55.35773132 66.45155151 54.9303064 67.47341553 54.4899292 68.52624512 C52.8077065 72.54831502 51.1255631 76.570382 49.45318604 80.59655762 C48.29093568 83.39233148 47.12087294 86.18471917 45.94921875 88.9765625 C45.60818619 89.80300262 45.26715363 90.62944275 44.91578674 91.48092651 C40.07516258 102.96241871 40.07516258 102.96241871 36 105 C33.1875 105.375 33.1875 105.375 30 105 C25.08154283 101.05892855 23.14206461 96.54124478 20.8125 90.875 C20.40451172 89.91070068 19.99652344 88.94640137 19.57617188 87.95288086 C18.3379971 85.01751465 17.11228726 82.07720247 15.88970947 79.13531494 C14.16943779 75.0066393 12.43259118 70.88490682 10.69921875 66.76171875 C8.33773781 61.14213412 5.98057309 55.52084303 3.63867188 49.89306641 C0.33423182 41.95278275 -2.96989606 34.0158891 -6.41796875 26.13671875 C-6.89685547 25.03062256 -7.37574219 23.92452637 -7.86914062 22.78491211 C-8.71475224 20.83828286 -9.57304836 18.89708632 -10.44726562 16.96313477 C-12.63315983 11.8933993 -13.52468656 8.53777665 -12 3 C-8.50982189 -1.55240623 -5.38996471 -1.13472941 0 0 Z " fill="#682B6C" transform="translate(718,56)"/>
<path d="M0 0 C13.86 0 27.72 0 42 0 C42 13.86 42 27.72 42 42 C28.14 42 14.28 42 0 42 C0 28.14 0 14.28 0 0 Z " fill="#1C726C" transform="translate(366,390)"/>
<path d="M0 0 C13.86 0 27.72 0 42 0 C42 13.86 42 27.72 42 42 C28.14 42 14.28 42 0 42 C0 28.14 0 14.28 0 0 Z " fill="#1D7876" transform="translate(141,390)"/>
<path d="M0 0 C13.86 0 27.72 0 42 0 C42 13.86 42 27.72 42 42 C28.14 42 14.28 42 0 42 C0 28.14 0 14.28 0 0 Z " fill="#5AA4A3" transform="translate(96,390)"/>
<path d="M0 0 C13.86 0 27.72 0 42 0 C42 13.86 42 27.72 42 42 C28.14 42 14.28 42 0 42 C0 28.14 0 14.28 0 0 Z " fill="#268D88" transform="translate(321,390)"/>
<path d="M0 0 C13.86 0 27.72 0 42 0 C42 13.86 42 27.72 42 42 C28.14 42 14.28 42 0 42 C0 28.14 0 14.28 0 0 Z " fill="#268C88" transform="translate(231,390)"/>
<path d="M0 0 C13.86 0 27.72 0 42 0 C42 13.86 42 27.72 42 42 C28.14 42 14.28 42 0 42 C0 28.14 0 14.28 0 0 Z " fill="#5FAC38" transform="translate(51,342)"/>
<path d="M0 0 C13.86 0 27.72 0 42 0 C42 13.86 42 27.72 42 42 C28.14 42 14.28 42 0 42 C0 28.14 0 14.28 0 0 Z " fill="#71B643" transform="translate(231,342)"/>
<path d="M0 0 C13.86 0 27.72 0 42 0 C42 13.86 42 27.72 42 42 C28.14 42 14.28 42 0 42 C0 28.14 0 14.28 0 0 Z " fill="#78B237" transform="translate(96,342)"/>
<path d="M0 0 C13.86 0 27.72 0 42 0 C42 13.86 42 27.72 42 42 C28.14 42 14.28 42 0 42 C0 28.14 0 14.28 0 0 Z " fill="#61AC38" transform="translate(141,342)"/>
<path d="M0 0 C13.86 0 27.72 0 42 0 C42 13.86 42 27.72 42 42 C28.14 42 14.28 42 0 42 C0 28.14 0 14.28 0 0 Z " fill="#73B646" transform="translate(321,342)"/>
<path d="M0 0 C13.86 0 27.72 0 42 0 C42 13.86 42 27.72 42 42 C28.14 42 14.28 42 0 42 C0 28.14 0 14.28 0 0 Z " fill="#95B131" transform="translate(141,293)"/>
<path d="M0 0 C13.86 0 27.72 0 42 0 C42 13.86 42 27.72 42 42 C28.14 42 14.28 42 0 42 C0 28.14 0 14.28 0 0 Z " fill="#ADC725" transform="translate(186,293)"/>
<path d="M0 0 C13.86 0 27.72 0 42 0 C42 13.86 42 27.72 42 42 C28.14 42 14.28 42 0 42 C0 28.14 0 14.28 0 0 Z " fill="#8B9C35" transform="translate(96,293)"/>
<path d="M0 0 C13.86 0 27.72 0 42 0 C42 13.86 42 27.72 42 42 C28.14 42 14.28 42 0 42 C0 28.14 0 14.28 0 0 Z " fill="#C9A01F" transform="translate(231,245)"/>
<path d="M0 0 C13.86 0 27.72 0 42 0 C42 13.86 42 27.72 42 42 C28.14 42 14.28 42 0 42 C0 28.14 0 14.28 0 0 Z " fill="#E3197D" transform="translate(51,245)"/>
<path d="M0 0 C6.744375 -0.020625 13.48875 -0.04125 20.4375 -0.0625 C22.56888428 -0.071604 24.70026855 -0.08070801 26.89624023 -0.09008789 C28.57535743 -0.093007 30.25447533 -0.09555557 31.93359375 -0.09765625 C32.81374146 -0.10277222 33.69388916 -0.10788818 34.60070801 -0.11315918 C36.73413879 -0.11346896 38.86748314 -0.06244067 41 0 C42 1 42 1 42.11352539 4.87719727 C42.11327423 6.60694166 42.10771043 8.33669105 42.09765625 10.06640625 C42.09664917 10.8713855 42.09564209 11.67636475 42.09460449 12.5057373 C42.08935614 15.52467261 42.075395 18.54358767 42.0625 21.5625 C42.041875 28.306875 42.02125 35.05125 42 42 C28.14 42 14.28 42 0 42 C0 28.14 0 14.28 0 0 Z " fill="#6AA6A5" transform="translate(276,390)"/>
<path d="M0 0 C1.7297444 0.00025116 3.45949379 0.00581496 5.18920898 0.01586914 C5.99418823 0.01687622 6.79916748 0.0178833 7.62854004 0.0189209 C10.64747534 0.02416925 13.66639041 0.0381304 16.68530273 0.05102539 C23.42967773 0.07165039 30.17405273 0.09227539 37.12280273 0.11352539 C37.12280273 13.97352539 37.12280273 27.83352539 37.12280273 42.11352539 C23.26280273 42.11352539 9.40280273 42.11352539 -4.87719727 42.11352539 C-4.89782227 35.36915039 -4.91844727 28.62477539 -4.93969727 21.67602539 C-4.94880127 19.54464111 -4.95790527 17.41325684 -4.96728516 15.21728516 C-4.97020426 13.53816796 -4.97275283 11.85905006 -4.97485352 10.17993164 C-4.97996948 9.29978394 -4.98508545 8.41963623 -4.99035645 7.51281738 C-4.99066622 5.3793866 -4.93963794 3.24604225 -4.87719727 1.11352539 C-3.87719727 0.11352539 -3.87719727 0.11352539 0 0 Z " fill="#6BBCC0" transform="translate(190.877197265625,389.886474609375)"/>
<path d="M0 0 C13.86 0 27.72 0 42 0 C42 13.86 42 27.72 42 42 C35.255625 42.020625 28.51125 42.04125 21.5625 42.0625 C19.43111572 42.071604 17.29973145 42.08070801 15.10375977 42.09008789 C13.42464257 42.093007 11.74552467 42.09555557 10.06640625 42.09765625 C8.74618469 42.1053302 8.74618469 42.1053302 7.39929199 42.11315918 C5.26586121 42.11346896 3.13251686 42.06244067 1 42 C0 41 0 41 -0.11352539 37.12280273 C-0.11327423 35.39305834 -0.10771043 33.66330895 -0.09765625 31.93359375 C-0.09664917 31.1286145 -0.09564209 30.32363525 -0.09460449 29.4942627 C-0.08935614 26.47532739 -0.075395 23.45641233 -0.0625 20.4375 C-0.041875 13.693125 -0.02125 6.94875 0 0 Z " fill="#CDD964" transform="translate(276,342)"/>
<path d="M0 0 C0.86149155 0.00718552 1.72298309 0.01437103 2.61058044 0.02177429 C3.49322067 0.02223251 4.3758609 0.02269073 5.2852478 0.02316284 C7.1522506 0.02618617 9.01925086 0.03407487 10.88621521 0.0464325 C13.75471358 0.06469078 16.62288941 0.0669422 19.49143982 0.06669617 C21.3019895 0.07161116 23.11253699 0.0774394 24.92308044 0.08427429 C25.78659622 0.08538712 26.650112 0.08649994 27.53979492 0.08764648 C33.58437804 0.13619689 33.58437804 0.13619689 34.70042419 1.25224304 C34.80152773 4.19759874 34.84011699 7.11901864 34.83323669 10.06474304 C34.83419342 10.94879822 34.83515015 11.83285339 34.83613586 12.74369812 C34.83681771 14.61666434 34.83496312 16.4896329 34.83079529 18.3625946 C34.82544709 21.23992692 34.83074013 24.11710312 34.83714294 26.99443054 C34.83648216 28.80953506 34.835201 30.62463947 34.83323669 32.43974304 C34.83526093 33.30639587 34.83728516 34.17304871 34.83937073 35.06596375 C34.81537429 41.13729295 34.81537429 41.13729295 33.70042419 42.25224304 C30.67064615 42.34095577 27.66375397 42.36743655 24.63401794 42.34989929 C23.72539505 42.34848434 22.81677216 42.3470694 21.88061523 42.34561157 C18.96635199 42.33999497 16.05216439 42.32743969 13.13792419 42.31474304 C11.16722218 42.30973018 9.19651896 42.3051669 7.22581482 42.30107117 C2.38398861 42.29002015 -2.45778076 42.27274442 -7.29957581 42.25224304 C-8.56417288 38.45845182 -8.46195881 34.88900245 -8.46754456 30.93583679 C-8.47087296 30.12357132 -8.47420135 29.31130585 -8.47763062 28.47442627 C-8.48268985 26.75885077 -8.48503925 25.04326545 -8.48487854 23.3276825 C-8.48707038 20.69625304 -8.50525103 18.06523925 -8.52418518 15.43388367 C-8.52711818 13.76786948 -8.5291036 12.1018533 -8.53004456 10.43583679 C-8.53723007 9.64624069 -8.54441559 8.85664459 -8.55181885 8.04312134 C-8.52158452 0.86016764 -7.07773642 0.02730646 0 0 Z " fill="#E4E033" transform="translate(58.29957580566406,292.7477569580078)"/>
<path d="M0 0 C13.86 0 27.72 0 42 0 C42.020625 6.744375 42.04125 13.48875 42.0625 20.4375 C42.071604 22.56888428 42.08070801 24.70026855 42.09008789 26.89624023 C42.093007 28.57535743 42.09555557 30.25447533 42.09765625 31.93359375 C42.10277222 32.81374146 42.10788818 33.69388916 42.11315918 34.60070801 C42.11346896 36.73413879 42.06244067 38.86748314 42 41 C41 42 41 42 37.12280273 42.11352539 C35.39305834 42.11327423 33.66330895 42.10771043 31.93359375 42.09765625 C31.1286145 42.09664917 30.32363525 42.09564209 29.4942627 42.09460449 C26.47532739 42.08935614 23.45641233 42.075395 20.4375 42.0625 C10.3209375 42.0315625 10.3209375 42.0315625 0 42 C0 28.14 0 14.28 0 0 Z " fill="#EB5E97" transform="translate(96,245)"/>
<path d="M0 0 C1.29997925 0.00303635 1.29997925 0.00303635 2.6262207 0.00613403 C3.51027588 0.00517731 4.39433105 0.00422058 5.30517578 0.00323486 C7.178142 0.00255302 9.05111056 0.0044076 10.92407227 0.00857544 C13.80140458 0.01392364 16.67858078 0.0086306 19.5559082 0.00222778 C21.37101272 0.00288856 23.18611713 0.00416972 25.0012207 0.00613403 C25.86787354 0.0041098 26.73452637 0.00208557 27.62744141 0 C33.69877061 0.02399644 33.69877061 0.02399644 34.8137207 1.13894653 C34.90242712 4.16850896 34.92898652 7.17581363 34.91137695 10.20535278 C34.91036987 11.01033203 34.90936279 11.81531128 34.9083252 12.64468384 C34.90307685 15.66361914 34.8891157 18.68253421 34.8762207 21.70144653 C34.8555957 28.44582153 34.8349707 35.19019653 34.8137207 42.13894653 C20.9537207 42.13894653 7.0937207 42.13894653 -7.1862793 42.13894653 C-7.2069043 35.39457153 -7.2275293 28.65019653 -7.2487793 21.70144653 C-7.2578833 19.57006226 -7.2669873 17.43867798 -7.27636719 15.2427063 C-7.27928629 13.5635891 -7.28183486 11.8844712 -7.28393555 10.20535278 C-7.28905151 9.32520508 -7.29416748 8.44505737 -7.29943848 7.53823853 C-7.29974825 5.40480774 -7.24871997 3.27146339 -7.1862793 1.13894653 C-5.29004728 -0.75728549 -2.5225757 0.00997028 0 0 Z " fill="#E3DF26" transform="translate(238.186279296875,292.8610534667969)"/>
<path d="M0 0 C1.72974441 0.00015918 3.45949355 0.0058569 5.18920898 0.01586914 C6.09783188 0.01728409 7.00645477 0.01869904 7.94261169 0.02015686 C10.85687494 0.02577346 13.77106254 0.03832874 16.68530273 0.05102539 C18.65600475 0.05603825 20.62670797 0.06060153 22.59741211 0.06469727 C27.43923832 0.07574828 32.28100768 0.09302401 37.12280273 0.11352539 C37.14744911 5.93424162 37.16563704 11.75492773 37.17773438 17.57568359 C37.18277541 19.55745981 37.18960812 21.53923228 37.19824219 23.52099609 C37.21031788 26.36304648 37.21603319 29.20504786 37.22045898 32.04711914 C37.22562027 32.93878281 37.23078156 33.83044647 37.23609924 34.74913025 C37.2362945 36.8709314 37.18490303 38.99263319 37.12280273 41.11352539 C35.22657071 43.00975741 32.45909914 42.24250165 29.93652344 42.25247192 C28.63654419 42.24943558 28.63654419 42.24943558 27.31030273 42.24633789 C25.98421997 42.24777298 25.98421997 42.24777298 24.63134766 42.24923706 C22.75838144 42.24991891 20.88541288 42.24806432 19.01245117 42.24389648 C16.13511886 42.23854828 13.25794266 42.24384132 10.38061523 42.25024414 C8.56551072 42.24958336 6.75040631 42.2483022 4.93530273 42.24633789 C4.0686499 42.24836212 3.20199707 42.25038635 2.30908203 42.25247192 C-3.76224717 42.22847548 -3.76224717 42.22847548 -4.87719727 41.11352539 C-4.9783008 38.16816969 -5.01689006 35.24674979 -5.01000977 32.30102539 C-5.01096649 31.41697021 -5.01192322 30.53291504 -5.01290894 29.62207031 C-5.01359078 27.7491041 -5.0117362 25.87613553 -5.00756836 24.00317383 C-5.00222016 21.12584152 -5.0075132 18.24866531 -5.01391602 15.37133789 C-5.01325523 13.55623338 -5.01197407 11.74112896 -5.01000977 9.92602539 C-5.012034 9.05937256 -5.01405823 8.19271973 -5.0161438 7.29980469 C-4.98786914 0.14604617 -4.98786914 0.14604617 0 0 Z " fill="#CED864" transform="translate(190.877197265625,341.886474609375)"/>
<path d="M0 0 C1.6874269 0.00015917 3.37485866 0.00585622 5.06225586 0.01586914 C6.39189613 0.01799156 6.39189613 0.01799156 7.74839783 0.02015686 C10.59133215 0.02577324 13.43418892 0.03832848 16.27709961 0.05102539 C18.19962452 0.05603828 20.12215065 0.06060155 22.04467773 0.06469727 C26.7680151 0.07574798 31.49129419 0.09302356 36.21459961 0.11352539 C37.87587736 3.4360809 37.35621685 7.15286968 37.34741211 10.80493164 C37.34836884 11.66537582 37.34932556 12.52582001 37.35031128 13.41233826 C37.35099226 15.23224969 37.3491437 17.05216354 37.3449707 18.87207031 C37.33961478 21.66810518 37.34492181 24.46397987 37.35131836 27.26000977 C37.35065769 29.02498408 37.34937676 30.7899583 37.34741211 32.55493164 C37.34943634 33.39657364 37.35146057 34.23821564 37.35354614 35.10536194 C37.32955433 40.99857067 37.32955433 40.99857067 36.21459961 42.11352539 C33.18482157 42.20223812 30.17792939 42.22871889 27.14819336 42.21118164 C26.23957047 42.20976669 25.33094757 42.20835175 24.39479065 42.20689392 C21.4805274 42.20127732 18.5663398 42.18872204 15.65209961 42.17602539 C13.68139759 42.17101253 11.71069437 42.16644925 9.73999023 42.16235352 C4.89816402 42.1513025 0.05639466 42.13402677 -4.78540039 42.11352539 C-4.81004677 36.29280917 -4.82823469 30.47212305 -4.84033203 24.65136719 C-4.84537306 22.66959098 -4.85220577 20.6878185 -4.86083984 18.70605469 C-4.87291554 15.86400431 -4.87863084 13.02200292 -4.88305664 10.17993164 C-4.88821793 9.28826797 -4.89337921 8.39660431 -4.8986969 7.47792053 C-4.89889216 5.35611938 -4.84750069 3.23441759 -4.78540039 1.11352539 C-3.78540039 0.11352539 -3.78540039 0.11352539 0 0 Z " fill="#69BDC1" transform="translate(55.785400390625,389.886474609375)"/>
<path d="M0 0 C3.65907504 0.68607657 5.35167676 1.98984314 8 4.5625 C9.6708345 7.90416899 9.15637743 11.66397536 9.16113281 15.33911133 C9.16609772 16.24820755 9.17106262 17.15730377 9.17617798 18.09394836 C9.1908202 21.11081694 9.19760529 24.12763293 9.203125 27.14453125 C9.20887509 29.2371979 9.21463284 31.32986452 9.22039795 33.42253113 C9.23091403 37.81497443 9.23675261 42.20739939 9.24023438 46.59985352 C9.24571809 52.22908603 9.26974103 57.85807654 9.29820633 63.48723316 C9.31682826 67.81179004 9.32203809 72.1362886 9.32357025 76.46088219 C9.32659869 78.53612274 9.33463362 80.61136222 9.34775543 82.68656349 C9.36480525 85.5904646 9.36293812 88.49377425 9.35644531 91.39770508 C9.3656601 92.25555603 9.37487488 93.11340698 9.3843689 93.99725342 C9.35162083 98.6715513 9.06376171 101.78675591 6 105.5625 C2.88134716 107.6416019 2.46260478 107.84409374 -1 107.4375 C-1.680625 107.37304688 -2.36125 107.30859375 -3.0625 107.2421875 C-5.90241479 106.24592707 -6.53056092 105.21605282 -8 102.5625 C-8.4605082 99.47269761 -8.43025392 96.40281991 -8.41992188 93.28344727 C-8.42839142 92.34479828 -8.43686096 91.40614929 -8.44558716 90.4390564 C-8.4689906 87.33553528 -8.46997852 84.23250895 -8.46875 81.12890625 C-8.47584943 78.97183534 -8.48354811 76.81476632 -8.49182129 74.65769958 C-8.50527372 70.13592276 -8.50683135 65.61432055 -8.50097656 61.0925293 C-8.49507917 55.29721867 -8.52567073 49.5027454 -8.56609344 43.70759678 C-8.59193915 39.25261417 -8.59485069 34.79783404 -8.59120178 30.34278679 C-8.59289589 28.20613436 -8.60256622 26.06947287 -8.62034607 23.93289375 C-8.642474 20.94500762 -8.63286491 17.95882741 -8.61523438 14.97094727 C-8.62849762 14.08818619 -8.64176086 13.20542511 -8.65542603 12.2959137 C-8.59506312 7.89468216 -8.41761291 6.10479885 -5.64904785 2.5096283 C-3 0.5625 -3 0.5625 0 0 Z " fill="#692B6E" transform="translate(362,53.4375)"/>
<path d="M0 0 C13.86 0 27.72 0 42 0 C42.061875 5.81625 42.12375 11.6325 42.1875 17.625 C42.22846802 20.36224365 42.22846802 20.36224365 42.27026367 23.15478516 C42.27903313 24.61620422 42.28667598 26.07763067 42.29296875 27.5390625 C42.30831665 28.28567139 42.32366455 29.03228027 42.33947754 29.80151367 C42.33984009 30.53168701 42.34020264 31.26186035 42.34057617 32.01416016 C42.34723801 32.64037262 42.35389984 33.26658508 42.36076355 33.91177368 C42 36 42 36 39 42 C26.13 42 13.26 42 0 42 C0 28.14 0 14.28 0 0 Z " fill="#5FAC38" transform="translate(51,51)"/>
<path d="M0 0 C4.516875 -0.061875 9.03375 -0.12375 13.6875 -0.1875 C15.08315186 -0.21481201 16.47880371 -0.24212402 17.91674805 -0.27026367 C19.06183838 -0.27775635 20.20692871 -0.28524902 21.38671875 -0.29296875 C22.53358154 -0.3086792 23.68044434 -0.32438965 24.86206055 -0.34057617 C30.66260711 0.13684211 36.32888682 1.69128157 42 3 C42 15.87 42 28.74 42 42 C28.14 42 14.28 42 0 42 C0 28.14 0 14.28 0 0 Z " fill="#ED6A1E" transform="translate(141,245)"/>
<path d="M0 0 C0.72019318 0.02123932 1.44038635 0.04247864 2.18240356 0.06436157 C3.69005406 0.11028371 5.19761671 0.15917917 6.70507812 0.2109375 C9.02195529 0.28954232 11.33897013 0.35633775 13.65625 0.421875 C15.12502206 0.46805349 16.59377319 0.514904 18.0625 0.5625 C19.10457108 0.59227432 19.10457108 0.59227432 20.16769409 0.62265015 C25.01754831 0.79879831 25.01754831 0.79879831 26.1328125 1.9140625 C26.23388124 4.78670306 26.27250922 7.63479878 26.265625 10.5078125 C26.26658173 11.36967163 26.26753845 12.23153076 26.26852417 13.11950684 C26.269206 14.94539462 26.26735154 16.77128481 26.26318359 18.59716797 C26.25783536 21.40207328 26.26312849 24.20681845 26.26953125 27.01171875 C26.26887047 28.78125036 26.26758931 30.55078186 26.265625 32.3203125 C26.26764923 33.16509155 26.26967346 34.00987061 26.27175903 34.88024902 C26.24776281 40.79911219 26.24776281 40.79911219 25.1328125 41.9140625 C22.17575929 42.00274549 19.24216194 42.02926546 16.28515625 42.01171875 C14.95551598 42.00959633 14.95551598 42.00959633 13.59901428 42.00743103 C10.75607996 42.00181465 7.91322319 41.98925941 5.0703125 41.9765625 C3.14778759 41.97154961 1.22526146 41.96698634 -0.69726562 41.96289062 C-5.42060299 41.95183991 -10.14388208 41.93456433 -14.8671875 41.9140625 C-16.00435711 37.8313915 -16.01116212 33.89468291 -16 29.68359375 C-16.00095673 28.8925676 -16.00191345 28.10154144 -16.00289917 27.2865448 C-16.00357816 25.61982137 -16.0017435 23.95309527 -15.99755859 22.28637695 C-15.99218498 19.72536352 -15.99752398 17.16452377 -16.00390625 14.60351562 C-16.00324584 12.98437461 -16.00196544 11.36523371 -16 9.74609375 C-16.00202423 8.9763472 -16.00404846 8.20660065 -16.00613403 7.41352844 C-15.98215303 2.02902803 -15.98215303 2.02902803 -14.8671875 0.9140625 C-9.8716504 -0.0097425 -5.05776033 -0.17708168 0 0 Z " fill="#EDE877" transform="translate(291.8671875,293.0859375)"/>
<path d="M0 0 C1.26092972 0.00212242 1.26092972 0.00212242 2.54733276 0.00428772 C5.23732025 0.00989388 7.92722509 0.02244739 10.6171875 0.03515625 C12.43880088 0.04017046 14.26041557 0.0447335 16.08203125 0.04882812 C20.55211527 0.05986531 25.02213736 0.07713405 29.4921875 0.09765625 C30.76603877 3.91921005 30.61571938 7.50450095 30.58984375 11.484375 C30.5884288 12.30138382 30.58701385 13.11839264 30.58555603 13.9601593 C30.57996044 16.56852893 30.56740879 19.17681259 30.5546875 21.78515625 C30.54967193 23.55403522 30.54510912 25.32291553 30.54101562 27.09179688 C30.52999246 31.42711644 30.51273088 35.76237177 30.4921875 40.09765625 C26.54105202 41.40117012 22.55394007 41.22377906 18.4453125 41.1953125 C17.67411072 41.19389755 16.90290894 41.1924826 16.1083374 41.19102478 C13.65291412 41.18544159 11.19758308 41.1728922 8.7421875 41.16015625 C7.07422007 41.15513908 5.40625121 41.15057655 3.73828125 41.14648438 C-0.34378537 41.13547766 -4.42578331 41.11822461 -8.5078125 41.09765625 C-11.06845184 37.25226706 -10.76290711 33.27293777 -10.703125 28.83203125 C-10.7002951 28.03863342 -10.69746521 27.2452356 -10.69454956 26.42779541 C-10.68338029 23.90092708 -10.65828194 21.37441693 -10.6328125 18.84765625 C-10.62277848 17.13151555 -10.61365337 15.41536927 -10.60546875 13.69921875 C-10.58345164 9.49856051 -10.54894437 5.29816905 -10.5078125 1.09765625 C-7.22889325 -0.54180338 -3.60167716 -0.02264553 0 0 Z " fill="#CE8FBE" transform="translate(61.5078125,196.90234375)"/>
<path d="M0 0 C0 13.53 0 27.06 0 41 C-13.86 41 -27.72 41 -42 41 C-42 28.46 -42 15.92 -42 3 C-28.75 2.625 -28.75 2.625 -24.65136719 2.52197266 C-17.73888322 2.299606 -11.10153282 1.69377519 -4.30175781 0.41552734 C-2 0 -2 0 0 0 Z " fill="#EA8D2E" transform="translate(228,246)"/>
<path d="M0 0 C10.89 0 21.78 0 33 0 C34.53898155 4.61694466 35.81515975 9.15581585 36.9375 13.875 C37.95672981 18.11891168 38.96934233 22.2498496 40.75 26.25 C42 30 42 30 42 42 C28.14 42 14.28 42 0 42 C0 28.14 0 14.28 0 0 Z " fill="#C9A021" transform="translate(51,148)"/>
<path d="M0 0 C12.21 0 24.42 0 37 0 C36.34 3.96 35.68 7.92 35 12 C34.59838964 14.81375159 34.21532473 17.61726801 33.875 20.4375 C33.78863281 21.08525391 33.70226562 21.73300781 33.61328125 22.40039062 C32.80926613 29.04308695 33 35.14858041 33 42 C22.11 42 11.22 42 0 42 C0 28.14 0 14.28 0 0 Z " fill="#D32383" transform="translate(51,99)"/>
<path d="M0 0 C141.9 0 283.8 0 430 0 C430 0.99 430 1.98 430 3 C288.43 3 146.86 3 1 3 C0.67 2.01 0.34 1.02 0 0 Z " fill="#79517B" transform="translate(408,317)"/>
<path d="M0 0 C6 0 6 0 7.73168945 1.32592773 C8.18761475 1.93895752 8.64354004 2.5519873 9.11328125 3.18359375 C9.63398193 3.8595459 10.15468262 4.53549805 10.69116211 5.23193359 C11.49372437 6.32368896 11.49372437 6.32368896 12.3125 7.4375 C13.46275753 8.92060284 14.61639617 10.40108969 15.7734375 11.87890625 C16.32870117 12.59449707 16.88396484 13.31008789 17.45605469 14.04736328 C21.60682714 19.29686962 26.10883339 23.78201398 31.6640625 27.515625 C32.30674072 27.9502002 32.94941895 28.38477539 33.61157227 28.83251953 C34.88495626 29.67613045 36.17432719 30.49622449 37.48022461 31.28857422 C39.25390625 32.4453125 39.25390625 32.4453125 42 35 C42 37.31 42 39.62 42 42 C28.14 42 14.28 42 0 42 C0 28.14 0 14.28 0 0 Z " fill="#D72338" transform="translate(96,196)"/>
<path d="M0 0 C4.516875 -0.061875 9.03375 -0.12375 13.6875 -0.1875 C15.08315186 -0.21481201 16.47880371 -0.24212402 17.91674805 -0.27026367 C19.06183838 -0.27775635 20.20692871 -0.28524902 21.38671875 -0.29296875 C22.53358154 -0.3086792 23.68044434 -0.32438965 24.86206055 -0.34057617 C30.66260711 0.13684211 36.32888682 1.69128157 42 3 C42 15.87 42 28.74 42 42 C28.14 42 14.28 42 0 42 C0 28.14 0 14.28 0 0 Z M2 2 C2 13.88 2 25.76 2 38 C7.341875 38.020625 12.68375 38.04125 18.1875 38.0625 C19.86481201 38.071604 21.54212402 38.08070801 23.27026367 38.09008789 C24.61116455 38.09301062 25.95206633 38.09555834 27.29296875 38.09765625 C27.97991821 38.10277222 28.66686768 38.10788818 29.37463379 38.11315918 C33.14430583 38.11383975 36.25339601 37.7493208 40 37 C40 26.11 40 15.22 40 4 C39.67 4 39.34 4 39 4 C38.67 12.91 38.34 21.82 38 31 C37.67 23.41 37.34 15.82 37 8 C35.68 7.34 34.36 6.68 33 6 C34.32 5.67 35.64 5.34 37 5 C37 4.34 37 3.68 37 3 C35.50234679 2.65627631 34.00168326 2.32566625 32.5 2 C31.6646875 1.814375 30.829375 1.62875 29.96875 1.4375 C20.88457672 0.09877973 10.9533892 1.47333005 2 2 Z " fill="#DF7333" transform="translate(141,245)"/>
<path d="M0 0 C13.86 0 27.72 0 42 0 C42 13.86 42 27.72 42 42 C28.14 42 14.28 42 0 42 C0 28.14 0 14.28 0 0 Z M1 1 C1 13.87 1 26.74 1 40 C13.87 40 26.74 40 40 40 C40 29.77 40 19.54 40 9 C29.77 9 19.54 9 9 9 C9 7.68 9 6.36 9 5 C8.34 5 7.68 5 7 5 C7 4.34 7 3.68 7 3 C17.89 3 28.78 3 40 3 C40 2.34 40 1.68 40 1 C27.13 1 14.26 1 1 1 Z " fill="#C3A236" transform="translate(231,245)"/>
<path d="M0 0 C0.86149155 0.00718552 1.72298309 0.01437103 2.61058044 0.02177429 C3.49322067 0.02223251 4.3758609 0.02269073 5.2852478 0.02316284 C7.1522506 0.02618617 9.01925086 0.03407487 10.88621521 0.0464325 C13.75471358 0.06469078 16.62288941 0.0669422 19.49143982 0.06669617 C21.3019895 0.07161116 23.11253699 0.0774394 24.92308044 0.08427429 C25.78659622 0.08538712 26.650112 0.08649994 27.53979492 0.08764648 C33.58437804 0.13619689 33.58437804 0.13619689 34.70042419 1.25224304 C34.80152773 4.19759874 34.84011699 7.11901864 34.83323669 10.06474304 C34.83419342 10.94879822 34.83515015 11.83285339 34.83613586 12.74369812 C34.83681771 14.61666434 34.83496312 16.4896329 34.83079529 18.3625946 C34.82544709 21.23992692 34.83074013 24.11710312 34.83714294 26.99443054 C34.83648216 28.80953506 34.835201 30.62463947 34.83323669 32.43974304 C34.83526093 33.30639587 34.83728516 34.17304871 34.83937073 35.06596375 C34.81537429 41.13729295 34.81537429 41.13729295 33.70042419 42.25224304 C30.67064615 42.34095577 27.66375397 42.36743655 24.63401794 42.34989929 C23.72539505 42.34848434 22.81677216 42.3470694 21.88061523 42.34561157 C18.96635199 42.33999497 16.05216439 42.32743969 13.13792419 42.31474304 C11.16722218 42.30973018 9.19651896 42.3051669 7.22581482 42.30107117 C2.38398861 42.29002015 -2.45778076 42.27274442 -7.29957581 42.25224304 C-8.56417288 38.45845182 -8.46195881 34.88900245 -8.46754456 30.93583679 C-8.47087296 30.12357132 -8.47420135 29.31130585 -8.47763062 28.47442627 C-8.48268985 26.75885077 -8.48503925 25.04326545 -8.48487854 23.3276825 C-8.48707038 20.69625304 -8.50525103 18.06523925 -8.52418518 15.43388367 C-8.52711818 13.76786948 -8.5291036 12.1018533 -8.53004456 10.43583679 C-8.53723007 9.64624069 -8.54441559 8.85664459 -8.55181885 8.04312134 C-8.52158452 0.86016764 -7.07773642 0.02730646 0 0 Z M1.70042419 2.25224304 C-0.18301513 6.01912169 -0.52015416 7.28183267 -0.29957581 11.25224304 C-0.95957581 11.25224304 -1.61957581 11.25224304 -2.29957581 11.25224304 C-2.29957581 21.15224304 -2.29957581 31.05224304 -2.29957581 41.25224304 C9.58042419 41.25224304 21.46042419 41.25224304 33.70042419 41.25224304 C33.37042419 28.38224304 33.04042419 15.51224304 32.70042419 2.25224304 C22.47042419 2.25224304 12.24042419 2.25224304 1.70042419 2.25224304 Z " fill="#E2DE43" transform="translate(58.29957580566406,292.7477569580078)"/>
<path d="M0 0 C0.66 0 1.32 0 2 0 C2 13.53 2 27.06 2 41 C-11.86 41 -25.72 41 -40 41 C-40 28.46 -40 15.92 -40 3 C-26.625 2.5625 -26.625 2.5625 -22.47119141 2.43188477 C-15.61109187 2.19678644 -8.81741736 1.81065001 -2 1 C-2 1.66 -2 2.32 -2 3 C-6.51368252 3.87782924 -10.77219979 4.1166438 -15.3671875 4.09765625 C-16.38656906 4.09553383 -16.38656906 4.09553383 -17.42654419 4.09336853 C-19.57607612 4.08781518 -21.72550008 4.07527169 -23.875 4.0625 C-25.34114432 4.05747896 -26.80729029 4.05291711 -28.2734375 4.04882812 C-31.84899283 4.03786111 -35.42448586 4.02062919 -39 4 C-39 4.66 -39 5.32 -39 6 C-38.01 6 -37.02 6 -36 6 C-36 15.9 -36 25.8 -36 36 C-24.12 35.67 -12.24 35.34 0 35 C0 23.45 0 11.9 0 0 Z " fill="#E39545" transform="translate(226,246)"/>
<path d="M0 0 C3.5625 1.6875 3.5625 1.6875 6 4 C6.7425 4.70125 7.485 5.4025 8.25 6.125 C11.1579051 10.90227267 12.3944847 15.84412241 11.6953125 21.4375 C10.08814238 27.31061551 6.98669048 30.63548594 2 34 C-2.41681271 36.20840635 -8.19242534 35.42161434 -13 35 C-18.29141597 32.4935398 -21.53850513 28.77684025 -24.25 23.625 C-25.60339109 18.88813117 -25.33983396 15.13944328 -23.9375 10.4375 C-18.3175611 0.46664066 -10.84892526 -0.95142828 0 0 Z M-16 6 C-19.24482846 9.66083211 -20.78109086 13.08791284 -21.16015625 17.9140625 C-20.85983793 21.82552546 -19.31301814 24.87673299 -17 28 C-13.56403286 30.85112167 -10.52163439 32.89234204 -6 33 C-1.31504818 32.09169301 2.0086666 30.51620685 4.9375 26.6875 C7.39694998 22.69402021 8.49629093 19.49016153 7.5546875 14.765625 C6.49165576 11.02668579 5.42818782 8.47712357 2.8125 5.5625 C-4.24207421 1.6432921 -9.29891094 0.9481812 -16 6 Z " fill="#949B9F" transform="translate(806,182)"/>
<path d="M0 0 C4.516875 -0.1546875 4.516875 -0.1546875 9.125 -0.3125 C10.06230957 -0.35802002 10.99961914 -0.40354004 11.96533203 -0.45043945 C16.18739307 -0.52013269 19.1457019 -0.38974521 22.546875 2.2734375 C25.41341037 5.45949114 26.00847343 6.8866324 26.2421875 11 C25.82857135 14.41566886 24.22086734 16.47067886 22 19 C21.01 19.33 20.02 19.66 19 20 C19.433125 20.83144531 19.86625 21.66289062 20.3125 22.51953125 C20.869375 23.60621094 21.42625 24.69289062 22 25.8125 C22.556875 26.89144531 23.11375 27.97039062 23.6875 29.08203125 C25 32 25 32 25 35 C22.66796875 34.875 22.66796875 34.875 20 34 C18.55078125 31.3125 18.55078125 31.3125 17.3125 28 C15.40408305 23.43100266 15.40408305 23.43100266 11.39453125 20.984375 C8.31835401 20.65990131 8.31835401 20.65990131 4 21 C4 25.62 4 30.24 4 35 C2.68 35 1.36 35 0 35 C0 23.45 0 11.9 0 0 Z M4 2 C4 7.61 4 13.22 4 19 C12.62659791 19.71242715 12.62659791 19.71242715 20 16 C21.74693992 13.61780919 22.02276273 12.45525467 21.875 9.5 C20.59495056 5.84271587 18.44693168 3.72346584 15 2 C11.32984725 1.8622315 7.67388652 1.95728039 4 2 Z " fill="#959DA1" transform="translate(827,182)"/>
<path d="M0 0 C13.86 0 27.72 0 42 0 C42.020625 6.744375 42.04125 13.48875 42.0625 20.4375 C42.071604 22.56888428 42.08070801 24.70026855 42.09008789 26.89624023 C42.093007 28.57535743 42.09555557 30.25447533 42.09765625 31.93359375 C42.10277222 32.81374146 42.10788818 33.69388916 42.11315918 34.60070801 C42.11346896 36.73413879 42.06244067 38.86748314 42 41 C41 42 41 42 37.12280273 42.11352539 C35.39305834 42.11327423 33.66330895 42.10771043 31.93359375 42.09765625 C31.1286145 42.09664917 30.32363525 42.09564209 29.4942627 42.09460449 C26.47532739 42.08935614 23.45641233 42.075395 20.4375 42.0625 C10.3209375 42.0315625 10.3209375 42.0315625 0 42 C0 28.14 0 14.28 0 0 Z M1 1 C1 12.88 1 24.76 1 37 C13.21 37 25.42 37 38 37 C38 35.68 38 34.36 38 33 C38.66 33 39.32 33 40 33 C40.78579793 28.85076942 41.11854983 24.94706569 41.09765625 20.7265625 C41.09515869 19.68580566 41.09266113 18.64504883 41.09008789 17.57275391 C41.08098389 16.26999512 41.07187988 14.96723633 41.0625 13.625 C41.041875 9.45875 41.02125 5.2925 41 1 C27.8 1 14.6 1 1 1 Z " fill="#E06B9A" transform="translate(96,245)"/>
<path d="M0 0 C1.03769531 -0.02578125 2.07539062 -0.0515625 3.14453125 -0.078125 C6.59825642 0.29429209 8.44038313 1.15247214 11.1875 3.25 C12 5.9375 12 5.9375 12.1875 8.25 C10.8675 8.25 9.5475 8.25 8.1875 8.25 C7.506875 7.2909375 7.506875 7.2909375 6.8125 6.3125 C5.3004721 3.97789182 5.3004721 3.97789182 2.3125 3.4375 C-0.65437103 3.25948774 -2.95313999 3.49311059 -5.8125 4.25 C-6.57772801 7.60458155 -6.57772801 7.60458155 -6.8125 11.25 C-5.15360942 13.70050152 -3.93236028 14.21619325 -1.0703125 15.0234375 C0.48042969 15.32121094 0.48042969 15.32121094 2.0625 15.625 C7.08602453 16.81094102 10.33354976 17.66329425 13.1875 22.25 C13.844049 25.27373944 13.64279166 27.06295838 13.1875 30.25 C11.31734906 32.68119623 9.90611655 33.89069173 7.1875 35.25 C5.08696284 35.39901491 2.98062175 35.47138453 0.875 35.5 C-0.25550781 35.52578125 -1.38601563 35.5515625 -2.55078125 35.578125 C-6.1441694 35.21663446 -7.99112974 34.47712561 -10.8125 32.25 C-11.625 29.0625 -11.625 29.0625 -11.8125 26.25 C-10.4925 26.25 -9.1725 26.25 -7.8125 26.25 C-7.57144531 26.88035156 -7.33039062 27.51070312 -7.08203125 28.16015625 C-5.99132579 30.38967062 -5.99132579 30.38967062 -3.82421875 31.18359375 C0.0228433 32.01766267 2.44292128 32.49312774 6.25 31.25 C8.51363077 29.32848838 8.51363077 29.32848838 8.5 26.0625 C8.396875 25.134375 8.29375 24.20625 8.1875 23.25 C4.3243054 21.52389177 0.55246879 20.03360815 -3.5 18.8125 C-7.15971105 17.59467806 -9.66072894 16.61798949 -11.8125 13.25 C-12.43234499 8.98856568 -12.30561964 7.00611678 -9.9375 3.375 C-6.63009275 0.06759275 -4.58508911 0.06784349 0 0 Z " fill="#99A0A4" transform="translate(723.8125,181.75)"/>
<path d="M0 0 C1.29997925 0.00303635 1.29997925 0.00303635 2.6262207 0.00613403 C3.51027588 0.00517731 4.39433105 0.00422058 5.30517578 0.00323486 C7.178142 0.00255302 9.05111056 0.0044076 10.92407227 0.00857544 C13.80140458 0.01392364 16.67858078 0.0086306 19.5559082 0.00222778 C21.37101272 0.00288856 23.18611713 0.00416972 25.0012207 0.00613403 C25.86787354 0.0041098 26.73452637 0.00208557 27.62744141 0 C33.69877061 0.02399644 33.69877061 0.02399644 34.8137207 1.13894653 C34.90242712 4.16850896 34.92898652 7.17581363 34.91137695 10.20535278 C34.91036987 11.01033203 34.90936279 11.81531128 34.9083252 12.64468384 C34.90307685 15.66361914 34.8891157 18.68253421 34.8762207 21.70144653 C34.8555957 28.44582153 34.8349707 35.19019653 34.8137207 42.13894653 C20.9537207 42.13894653 7.0937207 42.13894653 -7.1862793 42.13894653 C-7.2069043 35.39457153 -7.2275293 28.65019653 -7.2487793 21.70144653 C-7.2578833 19.57006226 -7.2669873 17.43867798 -7.27636719 15.2427063 C-7.27928629 13.5635891 -7.28183486 11.8844712 -7.28393555 10.20535278 C-7.28905151 9.32520508 -7.29416748 8.44505737 -7.29943848 7.53823853 C-7.29974825 5.40480774 -7.24871997 3.27146339 -7.1862793 1.13894653 C-5.29004728 -0.75728549 -2.5225757 0.00997028 0 0 Z M-5.1862793 2.13894653 C-5.1862793 15.00894653 -5.1862793 27.87894653 -5.1862793 41.13894653 C7.6837207 41.13894653 20.5537207 41.13894653 33.8137207 41.13894653 C33.4837207 28.26894653 33.1537207 15.39894653 32.8137207 2.13894653 C21.2637207 2.13894653 9.7137207 2.13894653 -2.1862793 2.13894653 C-2.1862793 4.11894653 -2.1862793 6.09894653 -2.1862793 8.13894653 C-1.5262793 8.13894653 -0.8662793 8.13894653 -0.1862793 8.13894653 C-0.1862793 9.12894653 -0.1862793 10.11894653 -0.1862793 11.13894653 C-1.5062793 11.46894653 -2.8262793 11.79894653 -4.1862793 12.13894653 C-4.1862793 8.83894653 -4.1862793 5.53894653 -4.1862793 2.13894653 C-4.5162793 2.13894653 -4.8462793 2.13894653 -5.1862793 2.13894653 Z " fill="#DEDE4C" transform="translate(238.186279296875,292.8610534667969)"/>
<path d="M0 0 C3.196875 -0.0825 6.39375 -0.165 9.6875 -0.25 C10.68612061 -0.28641602 11.68474121 -0.32283203 12.71362305 -0.36035156 C16.98285395 -0.41369006 19.36670269 -0.38848656 23.08203125 1.890625 C26.30956468 5.44025443 26.33039144 8.09038284 26.29296875 12.73828125 C25.86344199 16.0542278 24.39075646 17.74987627 22 20 C18.81175432 21.59412284 15.37103338 21.10174735 11.875 21.0625 C11.12089844 21.05798828 10.36679687 21.05347656 9.58984375 21.04882812 C7.72652873 21.03703499 5.86325445 21.01909942 4 21 C4 25.62 4 30.24 4 35 C2.68 35 1.36 35 0 35 C0 23.45 0 11.9 0 0 Z M4 2 C4 7.61 4 13.22 4 19 C12.58934155 19.65858064 12.58934155 19.65858064 20 16 C22.34813734 14.06832602 22.34813734 14.06832602 22.375 10.625 C22.31725081 6.98755513 22.31725081 6.98755513 20.1875 4.625 C16.57679759 1.94276392 13.67502095 1.88617622 9.3125 1.9375 C7.559375 1.958125 5.80625 1.97875 4 2 Z " fill="#949CA0" transform="translate(746,182)"/>
<path d="M0 0 C13.86 0 27.72 0 42 0 C42 13.86 42 27.72 42 42 C28.14 42 14.28 42 0 42 C0 28.14 0 14.28 0 0 Z M30.7109375 1.21875 C29.89251373 1.24094604 29.07408997 1.26314209 28.23086548 1.28601074 C25.61223671 1.3570875 22.99361833 1.42853954 20.375 1.5 C18.60156317 1.54820177 16.82812568 1.59637916 15.0546875 1.64453125 C10.70311594 1.7626919 6.35155862 1.88135965 2 2 C2 13.55 2 25.1 2 37 C2.99 37.33 3.98 37.66 5 38 C5 38.66 5 39.32 5 40 C16.88 40.33 28.76 40.66 41 41 C41 27.8 41 14.6 41 1 C37.56923839 1 34.14022967 1.12486903 30.7109375 1.21875 Z " fill="#CD347D" transform="translate(51,245)"/>
<path d="M0 0 C2.743125 -0.0825 5.48625 -0.165 8.3125 -0.25 C9.60281128 -0.30462402 9.60281128 -0.30462402 10.91918945 -0.36035156 C16.47836684 -0.44168938 16.47836684 -0.44168938 19.0390625 1.7265625 C20.11444938 4.27077049 20.25051244 5.88276979 20.0625 8.625 C19.87091124 10.92106609 19.87091124 10.92106609 20 13 C20.66 13.66 21.32 14.32 22 15 C22.57597361 22.25726746 22.57597361 22.25726746 20.75537109 24.60498047 C18.52788916 26.37519351 17.36812154 26.34969372 14.55078125 26.29296875 C13.78677002 26.28547607 13.02275879 26.2779834 12.2355957 26.27026367 C10.78866333 26.22929565 10.78866333 26.22929565 9.3125 26.1875 C4.7028125 26.0946875 4.7028125 26.0946875 0 26 C0 17.42 0 8.84 0 0 Z M3 2 C3 5.3 3 8.6 3 12 C4.588125 12.04125 6.17625 12.0825 7.8125 12.125 C8.70582031 12.14820313 9.59914063 12.17140625 10.51953125 12.1953125 C13.25402714 12.18285827 13.25402714 12.18285827 16 10 C16.5 7 16.5 7 16 4 C12.68629 1.79086 11.6553979 1.77518447 7.8125 1.875 C6.224375 1.91625 4.63625 1.9575 3 2 Z M3 14 C3 17.3 3 20.6 3 24 C4.91595968 24.08133791 6.83291932 24.13934367 8.75 24.1875 C9.81734375 24.22230469 10.8846875 24.25710938 11.984375 24.29296875 C15.30027855 23.97082786 16.59016673 23.22851086 19 21 C18.72965366 18.56282742 18.72965366 18.56282742 18 16 C14.47320901 13.64880601 12.97120515 13.78556548 8.8125 13.875 C7.72582031 13.89304688 6.63914062 13.91109375 5.51953125 13.9296875 C4.68808594 13.95289063 3.85664062 13.97609375 3 14 Z " fill="#98A0A3" transform="translate(780,235)"/>
<path d="M0 0 C0.66 0 1.32 0 2 0 C3.19273788 3.57821365 3.14759242 6.83339354 3.14526367 10.55737305 C3.15030159 11.70918312 3.15030159 11.70918312 3.15544128 12.88426208 C3.16495118 15.42676405 3.16689474 17.9692001 3.16796875 20.51171875 C3.17118245 22.28188606 3.17454661 24.0520531 3.17805481 25.82221985 C3.18404698 29.53700373 3.18589473 33.25176436 3.18530273 36.96655273 C3.18520137 41.71318756 3.19882662 46.45967193 3.21607494 51.20627117 C3.22722924 54.86526669 3.22922085 58.5242263 3.22869301 62.18323708 C3.22986899 63.9322238 3.23426924 65.68121158 3.24202538 67.4301815 C3.25189001 69.88544394 3.24892139 72.34038603 3.24291992 74.7956543 C3.24853943 75.51023804 3.25415894 76.22482178 3.25994873 76.96105957 C3.22907059 81.96543202 2.34960091 86.22107741 1 91 C0.67 91 0.34 91 0 91 C0 60.97 0 30.94 0 0 Z " fill="#7E4E82" transform="translate(569,61)"/>
<path d="M0 0 C1.6874269 0.00015917 3.37485866 0.00585622 5.06225586 0.01586914 C6.39189613 0.01799156 6.39189613 0.01799156 7.74839783 0.02015686 C10.59133215 0.02577324 13.43418892 0.03832848 16.27709961 0.05102539 C18.19962452 0.05603828 20.12215065 0.06060155 22.04467773 0.06469727 C26.7680151 0.07574798 31.49129419 0.09302356 36.21459961 0.11352539 C37.87587736 3.4360809 37.35621685 7.15286968 37.34741211 10.80493164 C37.34836884 11.66537582 37.34932556 12.52582001 37.35031128 13.41233826 C37.35099226 15.23224969 37.3491437 17.05216354 37.3449707 18.87207031 C37.33961478 21.66810518 37.34492181 24.46397987 37.35131836 27.26000977 C37.35065769 29.02498408 37.34937676 30.7899583 37.34741211 32.55493164 C37.34943634 33.39657364 37.35146057 34.23821564 37.35354614 35.10536194 C37.32955433 40.99857067 37.32955433 40.99857067 36.21459961 42.11352539 C33.18482157 42.20223812 30.17792939 42.22871889 27.14819336 42.21118164 C26.23957047 42.20976669 25.33094757 42.20835175 24.39479065 42.20689392 C21.4805274 42.20127732 18.5663398 42.18872204 15.65209961 42.17602539 C13.68139759 42.17101253 11.71069437 42.16644925 9.73999023 42.16235352 C4.89816402 42.1513025 0.05639466 42.13402677 -4.78540039 42.11352539 C-4.81004677 36.29280917 -4.82823469 30.47212305 -4.84033203 24.65136719 C-4.84537306 22.66959098 -4.85220577 20.6878185 -4.86083984 18.70605469 C-4.87291554 15.86400431 -4.87863084 13.02200292 -4.88305664 10.17993164 C-4.88821793 9.28826797 -4.89337921 8.39660431 -4.8986969 7.47792053 C-4.89889216 5.35611938 -4.84750069 3.23441759 -4.78540039 1.11352539 C-3.78540039 0.11352539 -3.78540039 0.11352539 0 0 Z M25.14428711 1.23461914 C24.34805939 1.25823013 23.55183167 1.28184113 22.73147583 1.3061676 C20.18400432 1.3828475 17.63683351 1.466853 15.08959961 1.55102539 C13.36435399 1.60424176 11.63909362 1.65698219 9.91381836 1.70922852 C5.68055439 1.83846846 1.44754579 1.97427959 -2.78540039 2.11352539 C-3.69585857 6.74457566 -3.91834516 11.21511426 -3.88305664 15.91821289 C-3.88204956 16.56089111 -3.88104248 17.20356934 -3.88000488 17.86572266 C-3.8748184 20.24000869 -3.86085755 22.61426905 -3.84790039 24.98852539 C-3.82727539 30.30977539 -3.80665039 35.63102539 -3.78540039 41.11352539 C9.08459961 41.11352539 21.95459961 41.11352539 35.21459961 41.11352539 C35.21459961 28.24352539 35.21459961 15.37352539 35.21459961 2.11352539 C32.03174265 0.52209691 28.62755541 1.11344255 25.14428711 1.23461914 Z " fill="#7FBBBD" transform="translate(55.785400390625,389.886474609375)"/>
<path d="M0 0 C13.86 0 27.72 0 42 0 C42 13.86 42 27.72 42 42 C28.14 42 14.28 42 0 42 C0 28.14 0 14.28 0 0 Z M1 2 C1 14.87 1 27.74 1 41 C13.87 41 26.74 41 40 41 C40 28.13 40 15.26 40 2 C27.13 2 14.26 2 1 2 Z " fill="#337772" transform="translate(141,390)"/>
<path d="M0 0 C2.536875 -0.061875 5.07375 -0.12375 7.6875 -0.1875 C8.47729248 -0.21481201 9.26708496 -0.24212402 10.08081055 -0.27026367 C14.6234701 -0.3236797 17.39795228 0.21782135 21 3 C24.40959478 6.87988372 24.45451194 10.67341156 24.28515625 15.62890625 C23.90490516 18.79072014 23.10380479 20.60601524 21 23 C16.72310212 26.30342485 12.88290884 26.36716374 7.6875 26.1875 C5.150625 26.125625 2.61375 26.06375 0 26 C0 17.42 0 8.84 0 0 Z M3 2 C3 9.26 3 16.52 3 24 C11.51892577 24.16567488 11.51892577 24.16567488 18.25 20.3125 C20.62987591 17.16766397 20.93125308 14.91857459 21 11 C19.32724809 7.3199458 17.16799652 3.88325784 13.3125 2.3125 C9.90439981 1.85194592 6.43907792 2 3 2 Z " fill="#98A0A3" transform="translate(654,235)"/>
<path d="M0 0 C13.86 0 27.72 0 42 0 C42.061875 5.81625 42.12375 11.6325 42.1875 17.625 C42.22846802 20.36224365 42.22846802 20.36224365 42.27026367 23.15478516 C42.27903313 24.61620422 42.28667598 26.07763067 42.29296875 27.5390625 C42.30831665 28.28567139 42.32366455 29.03228027 42.33947754 29.80151367 C42.33984009 30.53168701 42.34020264 31.26186035 42.34057617 32.01416016 C42.34723801 32.64037262 42.35389984 33.26658508 42.36076355 33.91177368 C42 36 42 36 39 42 C26.13 42 13.26 42 0 42 C0 28.14 0 14.28 0 0 Z M1 1 C0.979375 5.393125 0.95875 9.78625 0.9375 14.3125 C0.928396 15.67415283 0.91929199 17.03580566 0.90991211 18.4387207 C0.90741455 19.54820068 0.90491699 20.65768066 0.90234375 21.80078125 C0.89710693 22.91622314 0.89187012 24.03166504 0.88647461 25.1809082 C1.03365978 30.13234401 1.55152005 35.06672058 2 40 C14.21 40 26.42 40 39 40 C44.0780282 29.8439436 40.86382064 11.36584771 40 1 C27.13 1 14.26 1 1 1 Z " fill="#74A655" transform="translate(51,51)"/>
<path d="M0 0 C12.21 0 24.42 0 37 0 C36.34 3.96 35.68 7.92 35 12 C34.60093361 15.08414272 34.21705773 18.16026543 33.875 21.25 C33.78863281 22.00667969 33.70226562 22.76335937 33.61328125 23.54296875 C33.40608788 25.36166615 33.2026138 27.18078672 33 29 C30.50431833 25.25647749 30.93896827 22.64852433 31.3125 18.375 C31.36083984 17.68148437 31.40917969 16.98796875 31.45898438 16.2734375 C31.85460483 11.14539517 31.85460483 11.14539517 33 10 C33.33 7.69 33.66 5.38 34 3 C23.44 2.67 12.88 2.34 2 2 C1.67 14.87 1.34 27.74 1 41 C10.9 41 20.8 41 31 41 C31 37.7 31 34.4 31 31 C31.33 31 31.66 31 32 31 C32.495 36.445 32.495 36.445 33 42 C22.11 42 11.22 42 0 42 C0 28.14 0 14.28 0 0 Z " fill="#BD4181" transform="translate(51,99)"/>
<path d="M0 0 C2.39526367 0.13720703 2.39526367 0.13720703 5 1 C6.4855957 3.08544922 6.4855957 3.08544922 7.67578125 5.8046875 C8.11083984 6.78050781 8.54589844 7.75632813 8.99414062 8.76171875 C9.64672852 10.30279297 9.64672852 10.30279297 10.3125 11.875 C10.76689453 12.89464844 11.22128906 13.91429687 11.68945312 14.96484375 C15 22.5218515 15 22.5218515 15 26 C13.68 25.67 12.36 25.34 11 25 C10.505 22.525 10.505 22.525 10 20 C5.05 20.33 0.1 20.66 -5 21 C-5.99 23.475 -5.99 23.475 -7 26 C-8.32 26 -9.64 26 -11 26 C-9.17271177 19.98069759 -6.89266112 14.25685097 -4.375 8.5 C-4.06167725 7.78134766 -3.74835449 7.06269531 -3.42553711 6.32226562 C-1.13112942 1.13112942 -1.13112942 1.13112942 0 0 Z M2 5 C0.99759911 6.97795176 -0.00186043 8.95739442 -1 10.9375 C-1.556875 12.03964844 -2.11375 13.14179688 -2.6875 14.27734375 C-4.07237383 16.64638243 -4.07237383 16.64638243 -4 18 C-0.04 18 3.92 18 8 18 C6.58192622 13.52761347 4.88695626 9.28853694 3 5 C2.67 5 2.34 5 2 5 Z " fill="#9BA3A5" transform="translate(820,235)"/>
<path d="M0 0 C2.3190918 0.16577148 2.3190918 0.16577148 5 1 C6.57739258 3.31665039 6.57739258 3.31665039 7.89453125 6.34765625 C8.37470703 7.42724609 8.85488281 8.50683594 9.34960938 9.61914062 C9.83236328 10.75544922 10.31511719 11.89175781 10.8125 13.0625 C11.56563477 14.77276367 11.56563477 14.77276367 12.33398438 16.51757812 C13.57312474 19.33809763 14.79410305 22.16514543 16 25 C14.68 25.33 13.36 25.66 12 26 C11.34 24.02 10.68 22.04 10 20 C5.05 20.33 0.1 20.66 -5 21 C-5.99 23.475 -5.99 23.475 -7 26 C-8.32 26 -9.64 26 -11 26 C-8.34810503 16.88411104 -4.1194169 8.5225941 0 0 Z M2 5 C0.99759911 6.97795176 -0.00186043 8.95739442 -1 10.9375 C-1.556875 12.03964844 -2.11375 13.14179688 -2.6875 14.27734375 C-4.07237383 16.64638243 -4.07237383 16.64638243 -4 18 C-0.04 18 3.92 18 8 18 C7.566875 16.5975 7.13375 15.195 6.6875 13.75 C6.44386719 12.96109375 6.20023438 12.1721875 5.94921875 11.359375 C4.94891677 8.87302768 3.69142391 7.0657166 2 5 Z " fill="#9AA2A5" transform="translate(757,235)"/>
<path d="M0 0 C2.39526367 0.13720703 2.39526367 0.13720703 5 1 C6.4855957 3.08544922 6.4855957 3.08544922 7.67578125 5.8046875 C8.11083984 6.78050781 8.54589844 7.75632813 8.99414062 8.76171875 C9.64672852 10.30279297 9.64672852 10.30279297 10.3125 11.875 C10.76689453 12.89464844 11.22128906 13.91429687 11.68945312 14.96484375 C15 22.5218515 15 22.5218515 15 26 C13.68 25.67 12.36 25.34 11 25 C10.505 22.525 10.505 22.525 10 20 C5.05 20.33 0.1 20.66 -5 21 C-5.99 23.475 -5.99 23.475 -7 26 C-8.32 26 -9.64 26 -11 26 C-9.17271177 19.98069759 -6.89266112 14.25685097 -4.375 8.5 C-4.06167725 7.78134766 -3.74835449 7.06269531 -3.42553711 6.32226562 C-1.13112942 1.13112942 -1.13112942 1.13112942 0 0 Z M2 5 C0.99759911 6.97795176 -0.00186043 8.95739442 -1 10.9375 C-1.556875 12.03964844 -2.11375 13.14179688 -2.6875 14.27734375 C-4.07237383 16.64638243 -4.07237383 16.64638243 -4 18 C-0.04 18 3.92 18 8 18 C6.58192622 13.52761347 4.88695626 9.28853694 3 5 C2.67 5 2.34 5 2 5 Z " fill="#9BA3A5" transform="translate(696,235)"/>
<path d="M0 0 C2.6875 2.5 2.6875 2.5 4 5 C2.3125 5.6875 2.3125 5.6875 0 6 C-0.78375 5.505 -1.5675 5.01 -2.375 4.5 C-5.70151962 2.59913165 -7.37238239 3.0720048 -11 4 C-11 5.98 -11 7.96 -11 10 C-10.08476563 10.19335938 -9.16953125 10.38671875 -8.2265625 10.5859375 C-7.03804687 10.84632813 -5.84953125 11.10671875 -4.625 11.375 C-2.84996094 11.75785156 -2.84996094 11.75785156 -1.0390625 12.1484375 C2 13 2 13 4 15 C4.5412844 20.68348624 4.5412844 20.68348624 4 23 C1.82413312 25.2416489 0.44123814 25.93381428 -2.65625 26.3984375 C-3.5946875 26.39070313 -4.533125 26.38296875 -5.5 26.375 C-6.90765625 26.38660156 -6.90765625 26.38660156 -8.34375 26.3984375 C-11.43643559 25.93453466 -12.83922503 25.25250598 -15 23 C-15 21.68 -15 20.36 -15 19 C-14.01 19 -13.02 19 -12 19 C-11.34 19.99 -10.68 20.98 -10 22 C-6.4202048 22.91399027 -4.53525784 23.17841928 -1 22 C-0.67 20.02 -0.34 18.04 0 16 C-0.83144531 15.81824219 -1.66289063 15.63648438 -2.51953125 15.44921875 C-3.60621094 15.19785156 -4.69289063 14.94648438 -5.8125 14.6875 C-6.89144531 14.44386719 -7.97039063 14.20023438 -9.08203125 13.94921875 C-11.97244675 13.00896311 -13.24143045 12.43308938 -15 10 C-15.51410062 6.54818157 -15.38115483 4.68970874 -13.6875 1.625 C-9.36689611 -0.98745817 -4.90414488 -0.90045756 0 0 Z " fill="#9DA4A8" transform="translate(858,235)"/>
<path d="M0 0 C13.86 0 27.72 0 42 0 C42 13.86 42 27.72 42 42 C28.14 42 14.28 42 0 42 C0 28.14 0 14.28 0 0 Z M3 2 C0.47467317 5.78799025 0.74582818 8.78480347 0.8046875 13.16796875 C0.80670166 13.87264282 0.80871582 14.57731689 0.81079102 15.30334473 C0.82124191 17.93146286 0.84916457 20.55948808 0.875 23.1875 C0.91625 29.065625 0.9575 34.94375 1 41 C14.2 41 27.4 41 41 41 C41 28.13 41 15.26 41 2 C34.77125 1.938125 28.5425 1.87625 22.125 1.8125 C19.17651123 1.77153198 19.17651123 1.77153198 16.16845703 1.72973633 C14.61491511 1.72097664 13.06136634 1.71333148 11.5078125 1.70703125 C10.69755615 1.69168335 9.8872998 1.67633545 9.05249023 1.66052246 C6.48141394 1.6235736 6.48141394 1.6235736 3 2 Z " fill="#397770" transform="translate(366,390)"/>
<path d="M0 0 C13.86 0 27.72 0 42 0 C42 13.86 42 27.72 42 42 C28.14 42 14.28 42 0 42 C0 28.14 0 14.28 0 0 Z M1 1 C1 14.2 1 27.4 1 41 C13.87 41 26.74 41 40 41 C40.0309375 31.3784375 40.0309375 31.3784375 40.0625 21.5625 C40.071604 19.53552979 40.08070801 17.50855957 40.09008789 15.42016602 C40.09300703 13.8230801 40.09555559 12.22599345 40.09765625 10.62890625 C40.10277222 9.79194214 40.10788818 8.95497803 40.11315918 8.09265137 C40.11346924 6.06141735 40.06240188 4.03027529 40 2 C38.81089749 0.58273764 38.81089749 0.58273764 35.39819336 0.88647461 C33.79540145 0.88672571 32.19260413 0.8922874 30.58984375 0.90234375 C29.84383911 0.90335083 29.09783447 0.90435791 28.32922363 0.90539551 C25.53196687 0.91064311 22.73473196 0.92460427 19.9375 0.9375 C10.5634375 0.9684375 10.5634375 0.9684375 1 1 Z " fill="#75AB59" transform="translate(51,342)"/>
<path d="M0 0 C13.86 0 27.72 0 42 0 C42 13.86 42 27.72 42 42 C28.14 42 14.28 42 0 42 C0 28.14 0 14.28 0 0 Z M1 2 C1 14.87 1 27.74 1 41 C14.2 41 27.4 41 41 41 C41.0309375 33.018125 41.0309375 33.018125 41.0625 24.875 C41.071604 23.20679199 41.08070801 21.53858398 41.09008789 19.81982422 C41.09301149 18.48144613 41.095559 17.14306714 41.09765625 15.8046875 C41.10277222 15.122854 41.10788818 14.44102051 41.11315918 13.73852539 C41.113885 9.71891198 40.77535582 5.9438514 40 2 C39.67 2 39.34 2 39 2 C38.67 3.98 38.34 5.96 38 8 C38.020625 7.030625 38.04125 6.06125 38.0625 5.0625 C38.35618499 2.12534105 38.35618499 2.12534105 37 1 C34.50243196 0.8990997 32.03312358 0.86028234 29.53515625 0.8671875 C28.78664902 0.86623077 28.03814178 0.86527405 27.26695251 0.86428833 C25.68065304 0.86360654 24.09435079 0.86546078 22.50805664 0.86962891 C20.07627091 0.87496976 17.64467051 0.8696878 15.21289062 0.86328125 C13.67447876 0.86394218 12.13606701 0.86522365 10.59765625 0.8671875 C9.50228294 0.86415115 9.50228294 0.86415115 8.38478088 0.86105347 C4.5659548 0.81321117 4.5659548 0.81321117 1 2 Z " fill="#75AB54" transform="translate(141,342)"/>
<path d="M0 0 C8.91 0 17.82 0 27 0 C27 0.66 27 1.32 27 2 C23.04 2 19.08 2 15 2 C15 12.89 15 23.78 15 35 C13.68 35 12.36 35 11 35 C11 24.11 11 13.22 11 2 C7.37 2 3.74 2 0 2 C0 1.34 0 0.68 0 0 Z " fill="#939B9F" transform="translate(862,182)"/>
<path d="M0 0 C6.6 0 13.2 0 20 0 C20 0.66 20 1.32 20 2 C14.39 2 8.78 2 3 2 C3 5.3 3 8.6 3 12 C8.28 12 13.56 12 19 12 C19 12.66 19 13.32 19 14 C13.72 14 8.44 14 3 14 C3 17.3 3 20.6 3 24 C8.61 24 14.22 24 20 24 C20 24.66 20 25.32 20 26 C13.4 26 6.8 26 0 26 C0 17.42 0 8.84 0 0 Z " fill="#969EA2" transform="translate(869,235)"/>
<path d="M0 0 C13.86 0 27.72 0 42 0 C42 13.86 42 27.72 42 42 C28.14 42 14.28 42 0 42 C0 28.14 0 14.28 0 0 Z M2 2 C1.08954182 6.63105027 0.86705523 11.10158887 0.90234375 15.8046875 C0.90335083 16.44736572 0.90435791 17.09004395 0.90539551 17.75219727 C0.91058199 20.1264833 0.92454284 22.50074366 0.9375 24.875 C0.958125 30.19625 0.97875 35.5175 1 41 C14.2 41 27.4 41 41 41 C41.0309375 31.9353125 41.0309375 31.9353125 41.0625 22.6875 C41.071604 20.78315186 41.08070801 18.87880371 41.09008789 16.91674805 C41.0930086 15.406739 41.0955568 13.89672916 41.09765625 12.38671875 C41.10277222 11.60317017 41.10788818 10.81962158 41.11315918 10.0123291 C41.11368519 6.74424898 41.04107122 4.12321367 40 1 C35.0703976 0.97528545 30.14083126 0.95713309 25.21118164 0.94506836 C23.53409192 0.94003887 21.85700658 0.93321452 20.17993164 0.92456055 C17.769683 0.91243441 15.35949232 0.90675785 12.94921875 0.90234375 C12.19912033 0.89718246 11.44902191 0.89202118 10.67619324 0.88670349 C7.51048768 0.88636215 5.02662028 0.99112657 2 2 Z " fill="#84B35F" transform="translate(231,342)"/>
<path d="M0 0 C5.67830078 -0.02464705 11.35657069 -0.04283462 17.03491211 -0.05493164 C18.96818585 -0.05997256 20.90145576 -0.06680519 22.8347168 -0.07543945 C25.60726872 -0.08751565 28.37977041 -0.09323057 31.15234375 -0.09765625 C32.45702858 -0.10539818 32.45702858 -0.10539818 33.78807068 -0.11329651 C35.85905814 -0.11349185 37.92994324 -0.06208168 40 0 C41 1 41 1 41.11352539 4.78540039 C41.11336622 6.47282729 41.10766917 8.16025905 41.09765625 9.84765625 C41.0962413 10.7340831 41.09482635 11.62050995 41.09336853 12.53379822 C41.08775215 15.37673254 41.07519691 18.21958931 41.0625 21.0625 C41.05748711 22.98502491 41.05292384 24.90755104 41.04882812 26.83007812 C41.03777741 31.55341549 41.02050183 36.27669458 41 41 C40.67 41 40.34 41 40 41 C39.08954273 36.36895437 38.86720952 31.89822573 38.90234375 27.1953125 C38.9037587 26.4713327 38.90517365 25.74735291 38.90663147 25.00143433 C38.91218925 22.70924593 38.92473367 20.41715843 38.9375 18.125 C38.94252047 16.56250142 38.94708241 15.00000129 38.95117188 13.4375 C38.96214481 9.62496165 38.9793799 5.81249788 39 2 C37.96069336 2.01047363 36.92138672 2.02094727 35.85058594 2.03173828 C31.98913019 2.06797936 28.12768943 2.09091541 24.26611328 2.10986328 C22.59584015 2.1199115 20.92558458 2.13355236 19.25537109 2.15087891 C16.85249496 2.17517926 14.44985173 2.18649487 12.046875 2.1953125 C11.30193787 2.20563507 10.55700073 2.21595764 9.78948975 2.22659302 C6.03072358 2.22740368 3.18826289 2.10367118 0 0 Z " fill="#E2E165" transform="translate(52,293)"/>
<path d="M0 0 C4.86134106 1.94453642 4.86134106 1.94453642 6.4375 5.375 C7.0713947 9.73302608 6.93510663 11.64414026 4.4375 15.3125 C0.38179932 18.10079422 -1.72436344 17.85881366 -6.5625 17.375 C-6.8925 17.045 -7.2225 16.715 -7.5625 16.375 C-7.706875 17.303125 -7.85125 18.23125 -8 19.1875 C-8.5625 22.375 -8.5625 22.375 -9.5625 25.375 C-10.2225 25.375 -10.8825 25.375 -11.5625 25.375 C-11.5625 17.125 -11.5625 8.875 -11.5625 0.375 C-10.2425 0.705 -8.9225 1.035 -7.5625 1.375 C-6.964375 1.024375 -6.36625 0.67375 -5.75 0.3125 C-3.5625 -0.625 -3.5625 -0.625 0 0 Z M-7.5625 3.375 C-9.30073201 5.77541563 -9.59229994 6.96773413 -9.375 9.9375 C-8.45638592 12.69334223 -8.022136 13.81723053 -5.5625 15.375 C-2.0625 15.95833333 -2.0625 15.95833333 1.4375 15.375 C3.62297684 13.93351025 3.62297684 13.93351025 4.4375 11.375 C4.36966262 7.50826949 4.2999765 5.26622572 1.5625 2.4375 C-1.99505872 0.65872064 -4.35251688 1.30404315 -7.5625 3.375 Z " fill="#775778" transform="translate(689.5625,346.625)"/>
<path d="M0 0 C10.89 0 21.78 0 33 0 C35 6 35 6 35 10 C34.34 10 33.68 10 33 10 C32.87625 8.865625 32.7525 7.73125 32.625 6.5625 C32.41875 5.386875 32.2125 4.21125 32 3 C29.15464275 1.57732138 26.63781448 1.78028131 23.4609375 1.68359375 C22.28837402 1.64548584 21.11581055 1.60737793 19.90771484 1.56811523 C17.664021 1.50346069 17.664021 1.50346069 15.375 1.4375 C8.259375 1.2209375 8.259375 1.2209375 1 1 C1 14.2 1 27.4 1 41 C14.2 41 27.4 41 41 41 C40.67 36.38 40.34 31.76 40 27 C42 30 42 30 42 42 C28.14 42 14.28 42 0 42 C0 28.14 0 14.28 0 0 Z " fill="#C2A951" transform="translate(51,148)"/>
<path d="M0 0 C6.93 0 13.86 0 21 0 C21 0.66 21 1.32 21 2 C18.03 2 15.06 2 12 2 C12 9.92 12 17.84 12 26 C10.68 26 9.36 26 8 26 C8 18.08 8 10.16 8 2 C5.36 2 2.72 2 0 2 C0 1.34 0 0.68 0 0 Z " fill="#969FA1" transform="translate(719,235)"/>
<path d="M0 0 C0.99 0 1.98 0 3 0 C4.32 3.96 5.64 7.92 7 12 C8.32 8.04 9.64 4.08 11 0 C11.99 0 12.98 0 14 0 C15.32 3.96 16.64 7.92 18 12 C19.32 8.04 20.64 4.08 22 0 C22.66 0 23.32 0 24 0 C23.35729017 5.9129304 21.80996216 11.34244531 20 17 C19.01 17 18.02 17 17 17 C15.68 13.37 14.36 9.74 13 6 C11.33167423 8.50248865 10.37618326 10.41149187 9.375 13.1875 C9.11460937 13.90292969 8.85421875 14.61835938 8.5859375 15.35546875 C8.29589844 16.16951172 8.29589844 16.16951172 8 17 C7.01 17 6.02 17 5 17 C3.35 11.39 1.7 5.78 0 0 Z " fill="#6F4C72" transform="translate(486,347)"/>
<path d="M0 0 C0.66 0 1.32 0 2 0 C2.50559908 1.43554025 3.0042749 2.8735202 3.5 4.3125 C3.7784375 5.11300781 4.056875 5.91351563 4.34375 6.73828125 C5 9 5 9 5 12 C5.66 12 6.32 12 7 12 C7.99 8.04 8.98 4.08 10 0 C10.99 0 11.98 0 13 0 C14.32 3.63 15.64 7.26 17 11 C18.79553415 8.30669878 19.42696461 6.8539399 20.125 3.8125 C20.558125 1.9253125 20.558125 1.9253125 21 0 C21.99 0.33 22.98 0.66 24 1 C22.35 6.28 20.7 11.56 19 17 C18.01 16.67 17.02 16.34 16 16 C14.3364652 12.43369295 13.2468184 8.74045519 12 5 C10.35 8.96 8.7 12.92 7 17 C6.01 16.67 5.02 16.34 4 16 C2.83203125 13.1640625 2.83203125 13.1640625 1.8125 9.625 C1.46832031 8.46226562 1.12414062 7.29953125 0.76953125 6.1015625 C0 3 0 3 0 0 Z " fill="#6B4A70" transform="translate(512,347)"/>
<path d="M0 0 C0.99 0 1.98 0 3 0 C3.99 3.63 4.98 7.26 6 11 C7.66832577 8.49751135 8.62381674 6.58850813 9.625 3.8125 C9.88539063 3.09707031 10.14578125 2.38164062 10.4140625 1.64453125 C10.60742188 1.10183594 10.80078125 0.55914062 11 0 C11.99 0.33 12.98 0.66 14 1 C15.6635348 4.56630705 16.7531816 8.25954481 18 12 C19.32 8.04 20.64 4.08 22 0 C22.66 0 23.32 0 24 0 C22.91103333 5.75762166 21.70663707 11.39247819 20 17 C19.01 17 18.02 17 17 17 C15.35 13.04 13.7 9.08 12 5 C10.68 8.96 9.36 12.92 8 17 C7.01 17 6.02 17 5 17 C4.16301614 14.54285453 3.33027576 12.08441143 2.5 9.625 C2.26152344 8.92632812 2.02304687 8.22765625 1.77734375 7.5078125 C0 2.2265625 0 2.2265625 0 0 Z " fill="#6D4C6F" transform="translate(461,347)"/>
<path d="M0 0 C0.99 0.33 1.98 0.66 3 1 C3.33 2.65 3.66 4.3 4 6 C3.67 6 3.34 6 3 6 C2.21220685 15.18688013 1.91187465 24.30022388 2.2265625 33.515625 C2.25200638 34.26200226 2.27745026 35.00837952 2.30366516 35.77737427 C2.43813218 39.54593175 2.59353423 43.31274288 2.76928711 47.07958984 C3.07857622 54.3608544 3.08863568 60.93199331 1 68 C0.67 68 0.34 68 0 68 C0 45.56 0 23.12 0 0 Z " fill="#5D2F61" transform="translate(555,88)"/>
<path d="M0 0 C2.3937773 2.3937773 3.53688393 4.64240846 4 8 C3 9 3 9 0.05859375 9.09765625 C-1.73384766 9.08025391 -1.73384766 9.08025391 -3.5625 9.0625 C-5.35880859 9.04896484 -5.35880859 9.04896484 -7.19140625 9.03515625 C-8.11824219 9.02355469 -9.04507813 9.01195312 -10 9 C-9.34 10.65 -8.68 12.3 -8 14 C-2.42169984 14.12469099 -2.42169984 14.12469099 3 13 C2 15 2 15 0 17 C-4.3891322 17.55735012 -6.71081595 17.82640003 -10.4375 15.4375 C-12.51858903 12.19100111 -12.93249957 9.84752461 -13 6 C-11.76993806 3.08669541 -10.69675518 1.52857289 -8.1875 -0.375 C-5.09483095 -1.25861973 -3.06754797 -0.91373769 0 0 Z M-7.8125 2.1875 C-8.534375 2.785625 -9.25625 3.38375 -10 4 C-10 4.99 -10 5.98 -10 7 C-6.37 7 -2.74 7 1 7 C0.47115921 2.93825904 0.47115921 2.93825904 -2.25 1.5625 C-5.06751646 0.7160643 -5.06751646 0.7160643 -7.8125 2.1875 Z " fill="#6D4E6F" transform="translate(767,347)"/>
<path d="M0 0 C2.35235238 3.23448453 3.0174078 5.12961008 2.9375 9.125 C1.81161043 12.57772802 1.03437855 13.97708097 -2 16 C-5.74122642 16.68371489 -8.89382697 16.42545117 -12.4375 15.0625 C-14.97924932 11.7073909 -15.44407308 8.1495353 -15 4 C-10.51221579 -1.98371228 -6.8457356 -2.81164141 0 0 Z M-12.0625 3.125 C-13.18528652 6.56821198 -12.99936105 8.5406733 -12 12 C-10.06268472 14.36410488 -10.06268472 14.36410488 -6.5625 14.3125 C-3.15573049 14.25440855 -3.15573049 14.25440855 -1.0625 12.9375 C0.5957539 9.91362524 0.30144019 7.37613017 0 4 C-0.66 3.01 -1.32 2.02 -2 1 C-7.67171844 0.10967586 -7.67171844 0.10967586 -12.0625 3.125 Z " fill="#735573" transform="translate(609,348)"/>
<path d="M0 0 C1.63671875 1.1015625 1.63671875 1.1015625 3 3 C3.29296875 6.35546875 3.29296875 6.35546875 3.1875 10.1875 C3.16042969 11.45980469 3.13335938 12.73210937 3.10546875 14.04296875 C3.07066406 15.01878906 3.03585937 15.99460937 3 17 C1.68 17 0.36 17 -1 17 C-2.02480469 17.05220703 -2.02480469 17.05220703 -3.0703125 17.10546875 C-5.04561402 17.1843306 -7.02543505 17.09554347 -9 17 C-11 14 -11 14 -10.8125 11.4375 C-10 9 -10 9 -7 7 C-4.95703125 6.8046875 -4.95703125 6.8046875 -2.8125 6.875 C-0.9253125 6.936875 -0.9253125 6.936875 1 7 C0.67 5.35 0.34 3.7 0 2 C-3.3 2.33 -6.6 2.66 -10 3 C-10 2.34 -10 1.68 -10 1 C-6.24928186 -0.82177738 -3.99362668 -1.36624071 0 0 Z M-8 10 C-8.33 10.99 -8.66 11.98 -9 13 C-8.67 13.66 -8.34 14.32 -8 15 C-4.58357241 15.25015873 -4.58357241 15.25015873 -1 15 C1.30671915 12.28450846 1.30671915 12.28450846 0.625 9.8125 C0.41875 9.214375 0.2125 8.61625 0 8 C-3.25811062 8 -5.10441559 8.5522078 -8 10 Z " fill="#674A69" transform="translate(643,347)"/>
<path d="M0 0 C2.375 1.5 2.375 1.5 4 4 C4.77115706 8.28070856 4.7076263 11.7385792 2.5625 15.5625 C-1.26400751 17.70907738 -4.72186143 17.89487669 -9 17 C-12.3265563 14.32252786 -12.89853117 12.71028182 -13.5 8.5 C-12.92072788 4.44509518 -11.91261088 2.82939343 -9 0 C-5.41563853 -1.19478716 -3.63093708 -0.96330984 0 0 Z M-10 4 C-11.06532181 7.66204371 -11.46121461 9.87578939 -10 13.4375 C-7.95647409 15.30945395 -7.95647409 15.30945395 -4.5 15.4375 C-1.15001347 15.23698839 -1.15001347 15.23698839 0.9375 13.9375 C2.6140629 10.88023824 2.36528977 8.4093712 2 5 C0.56450925 2.84676388 -0.55558708 2.20739269 -2.875 1.125 C-6.15180683 0.93224666 -7.54192402 1.87409645 -10 4 Z " fill="#725075" transform="translate(713,347)"/>
<path d="M0 0 C0.33 0.66 0.66 1.32 1 2 C-1.97 1.67 -4.94 1.34 -8 1 C-7.67 2.32 -7.34 3.64 -7 5 C-5.15272433 6.13070444 -5.15272433 6.13070444 -2.9375 6.75 C-2.20402344 6.99234375 -1.47054687 7.2346875 -0.71484375 7.484375 C-0.14894531 7.65453125 0.41695312 7.8246875 1 8 C1.3125 10.8125 1.3125 10.8125 1 14 C-1.125 16 -1.125 16 -4 17 C-7.25 16.375 -7.25 16.375 -10 15 C-10.33 14.01 -10.66 13.02 -11 12 C-8.03 12.33 -5.06 12.66 -2 13 C-2 12.01 -2 11.02 -2 10 C-3.11375 9.608125 -4.2275 9.21625 -5.375 8.8125 C-8.1835502 7.6104633 -8.87947967 7.19283253 -10.5625 4.5 C-11 2 -11 2 -9 -1 C-5.20980534 -2.26339822 -3.62477616 -1.49719015 0 0 Z " fill="#6E5170" transform="translate(673,348)"/>
<path d="M0 0 C1 1 1 1 1.09765625 4.37890625 C1.09098369 5.77347077 1.07902532 7.16801743 1.0625 8.5625 C1.05798828 9.27341797 1.05347656 9.98433594 1.04882812 10.71679688 C1.03700864 12.47790013 1.01907263 14.23896036 1 16 C0.34 16 -0.32 16 -1 16 C-1.33 11.38 -1.66 6.76 -2 2 C-3.32 1.67 -4.64 1.34 -6 1 C-9.29300666 2.70467916 -9.29300666 2.70467916 -9.73046875 6.0390625 C-9.88128906 7.22242188 -10.03210938 8.40578125 -10.1875 9.625 C-10.34605469 10.81351562 -10.50460937 12.00203125 -10.66796875 13.2265625 C-10.77753906 14.14179688 -10.88710938 15.05703125 -11 16 C-11.66 16 -12.32 16 -13 16 C-13 10.39 -13 4.78 -13 -1 C-11.68 -1 -10.36 -1 -9 -1 C-5.21801096 -2.26066301 -3.63636792 -1.42292658 0 0 Z " fill="#694A6B" transform="translate(568,348)"/>
<path d="M0 0 C0.66 0 1.32 0 2 0 C2 13.2 2 26.4 2 40 C-11.53 40 -25.06 40 -39 40 C-39 39.67 -39 39.34 -39 39 C-26.79 39 -14.58 39 -2 39 C-2 38.01 -2 37.02 -2 36 C-1.34 35.67 -0.68 35.34 0 35 C0 23.45 0 11.9 0 0 Z " fill="#DE8E40" transform="translate(226,246)"/>
<path d="M0 0 C2.25 1.1875 2.25 1.1875 3.25 2.1875 C3.32313567 4.71799402 3.34247527 7.22054837 3.3125 9.75 C3.30798828 10.46091797 3.30347656 11.17183594 3.29882812 11.90429688 C3.28700864 13.66540013 3.26907263 15.42646036 3.25 17.1875 C2.59 17.1875 1.93 17.1875 1.25 17.1875 C0.92 12.2375 0.59 7.2875 0.25 2.1875 C-5.49126401 2.44433129 -5.49126401 2.44433129 -7.0859375 4.921875 C-7.82844318 7.45512969 -8.16724238 9.8059035 -8.375 12.4375 C-8.44976563 13.32953125 -8.52453125 14.2215625 -8.6015625 15.140625 C-8.65054688 15.81609375 -8.69953125 16.4915625 -8.75 17.1875 C-9.41 17.1875 -10.07 17.1875 -10.75 17.1875 C-10.75 11.5775 -10.75 5.9675 -10.75 0.1875 C-9.76 0.5175 -8.77 0.8475 -7.75 1.1875 C-6.96625 0.836875 -6.1825 0.48625 -5.375 0.125 C-2.75 -0.8125 -2.75 -0.8125 0 0 Z " fill="#644167" transform="translate(585.75,346.8125)"/>
<path d="M0 0 C0.886875 0.391875 1.77375 0.78375 2.6875 1.1875 C2.6875 1.8475 2.6875 2.5075 2.6875 3.1875 C0.0475 3.1875 -2.5925 3.1875 -5.3125 3.1875 C-4.9825 4.1775 -4.6525 5.1675 -4.3125 6.1875 C-2.00997517 7.25652939 0.3247026 8.25925817 2.6875 9.1875 C3.6875 10.1875 3.6875 10.1875 3.875 12.625 C3.6875 15.1875 3.6875 15.1875 1.6875 17.1875 C-1.00089385 17.45741906 -3.60391936 17.27487357 -6.3125 17.1875 C-6.9725 15.8675 -7.6325 14.5475 -8.3125 13.1875 C-5.3425 13.5175 -2.3725 13.8475 0.6875 14.1875 C0.6875 13.1975 0.6875 12.2075 0.6875 11.1875 C0.12160156 11.04054688 -0.44429687 10.89359375 -1.02734375 10.7421875 C-3.28661985 10.05130166 -5.26368095 9.37001078 -7.3125 8.1875 C-8.3125 5 -8.3125 5 -8.3125 2.1875 C-5.09279771 -0.27462528 -4.04623082 -0.99247171 0 0 Z " fill="#6B4E6E" transform="translate(782.3125,346.8125)"/>
<path d="M0 0 C0.66 0 1.32 0 2 0 C2 20.13 2 40.26 2 61 C-1 58 -1 58 -1.25 54.9375 C-1 52 -1 52 0 50 C0.09016377 48.39645548 0.11756075 46.78917778 0.11352539 45.18310547 C0.11344986 44.18221893 0.11337433 43.1813324 0.11329651 42.15011597 C0.10813522 41.06674957 0.10297394 39.98338318 0.09765625 38.8671875 C0.0962413 37.76021515 0.09482635 36.6532428 0.09336853 35.51272583 C0.08775772 31.96679007 0.07520337 28.42091677 0.0625 24.875 C0.05748639 22.47526133 0.05292325 20.07552167 0.04882812 17.67578125 C0.03778478 11.78383275 0.0210361 5.89192084 0 0 Z " fill="#592E5B" transform="translate(505,63)"/>
<path d="M0 0 C0.99 0 1.98 0 3 0 C3.67057887 1.7902061 4.3363469 3.58221489 5 5.375 C5.556875 6.87160156 5.556875 6.87160156 6.125 8.3984375 C7 11 7 11 7 13 C7.66 13 8.32 13 9 13 C9.1546875 12.01 9.1546875 12.01 9.3125 11 C10.19213564 7.16158991 11.56969896 3.66903309 13 0 C13.66 0 14.32 0 15 0 C14.34496718 4.05819183 13.05440879 7.53971282 11.4375 11.3125 C10.98246094 12.38113281 10.52742187 13.44976562 10.05859375 14.55078125 C9.70925781 15.35902344 9.35992188 16.16726563 9 17 C8.01 16.67 7.02 16.34 6 16 C4.79942024 13.30964974 3.77191505 10.71151241 2.8125 7.9375 C2.53986328 7.17888672 2.26722656 6.42027344 1.98632812 5.63867188 C1.31384604 3.7628008 0.65557049 1.88184797 0 0 Z " fill="#6A4D6D" transform="translate(614,347)"/>
<path d="M0 0 C0.66 0 1.32 0 2 0 C2 1.65 2 3.3 2 5 C3.65 5 5.3 5 7 5 C7 5.66 7 6.32 7 7 C5.35 7 3.7 7 2 7 C2.33 10.96 2.66 14.92 3 19 C4.32 19.33 5.64 19.66 7 20 C7 20.66 7 21.32 7 22 C5.02 22 3.04 22 1 22 C-0.44207941 19.11584117 -0.09394887 16.58278472 -0.0625 13.375 C-0.05347656 12.18648438 -0.04445313 10.99796875 -0.03515625 9.7734375 C-0.02355469 8.85820312 -0.01195312 7.94296875 0 7 C-0.99 7 -1.98 7 -3 7 C-3 6.34 -3 5.68 -3 5 C-2.01 5 -1.02 5 0 5 C0 3.35 0 1.7 0 0 Z " fill="#674868" transform="translate(735,342)"/>
<path d="M0 0 C1.9375 0.8125 1.9375 0.8125 4 2 C4.33 2.99 4.66 3.98 5 5 C5.66 5 6.32 5 7 5 C7.99 6.485 7.99 6.485 9 8 C9.59167969 7.84402344 10.18335938 7.68804687 10.79296875 7.52734375 C18.64147627 5.5940246 18.64147627 5.5940246 23 7 C23 7.33 23 7.66 23 8 C17.95827605 9.6540043 13.32996624 10.90482203 8 11 C4.08614502 8.64557161 1.59115494 5.72873516 -1 2 C-0.67 1.34 -0.34 0.68 0 0 Z " fill="#714572" transform="translate(172,77)"/>
<path d="M0 0 C3 0 6 0 9 0 C7.73577236 2.52845528 6.47154472 2.76422764 4 4 C2.71553081 6.56893838 2.67022856 8.76576337 2.4375 11.625 C2.35371094 12.62789063 2.26992188 13.63078125 2.18359375 14.6640625 C2.12300781 15.43492187 2.06242188 16.20578125 2 17 C1.34 17 0.68 17 0 17 C0 11.39 0 5.78 0 0 Z " fill="#644568" transform="translate(722,347)"/>
<path d="M0 0 C2.97 0.495 2.97 0.495 6 1 C4.63016497 4.16115776 4.0109362 4.9927092 1 7 C-1.8157766 7.06573798 -4.20318424 6.54131918 -7 6 C-7.33 5.34 -7.66 4.68 -8 4 C-5.69 4.33 -3.38 4.66 -1 5 C-0.67 3.35 -0.34 1.7 0 0 Z " fill="#6A3B6E" transform="translate(364,154)"/>
<path d="M0 0 C3 2 3 2 3.43359375 4.0234375 C3.44397323 10.2718839 3.44397323 10.2718839 1.4375 13.5625 C-1.82152381 15.4844884 -4.28489886 15.28577701 -8 15 C-7.4225 14.731875 -6.845 14.46375 -6.25 14.1875 C-3.86780252 12.93022911 -1.97481439 11.8431601 0 10 C0.48261667 7.49119384 0.48261667 7.49119384 0.25 4.8125 C0.21390625 3.91144531 0.1778125 3.01039063 0.140625 2.08203125 C0.09421875 1.39496094 0.0478125 0.70789063 0 0 Z " fill="#644B67" transform="translate(714,349)"/>
<path d="M0 0 C0.99 0 1.98 0 3 0 C1.02 2.97 1.02 2.97 -1 6 C-2.16959987 5.02433888 -3.33561177 4.044375 -4.5 3.0625 C-5.1496875 2.51722656 -5.799375 1.97195312 -6.46875 1.41015625 C-6.9740625 0.94480469 -7.479375 0.47945312 -8 0 C-8 -0.33 -8 -0.66 -8 -1 C-3.375 -2.25 -3.375 -2.25 0 0 Z " fill="#6E3E71" transform="translate(275,175)"/>
<path d="M0 0 C4.51045941 2.46025059 8.18504423 5.60282037 12 9 C8.25 11 8.25 11 6 11 C6.33 9.35 6.66 7.7 7 6 C5.68 6 4.36 6 3 6 C3 5.34 3 4.68 3 4 C1.35 4 -0.3 4 -2 4 C-1.34 3.67 -0.68 3.34 0 3 C0 2.01 0 1.02 0 0 Z " fill="#68376B" transform="translate(668,58)"/>
<path d="M0 0 C0.66 0 1.32 0 2 0 C3.14819277 5.8685408 2.77313045 11.0885256 2 17 C1.34 17 0.68 17 0 17 C0 11.39 0 5.78 0 0 Z " fill="#613E66" transform="translate(575,347)"/>
<path d="M0 0 C1.8125 1.0625 1.8125 1.0625 3 3 C3.24713438 5.71847813 3.13479526 8.2591631 3 11 C2.67 10.34 2.34 9.68 2 9 C1.34 8.67 0.68 8.34 0 8 C0.66 8 1.32 8 2 8 C2 6.68 2 5.36 2 4 C1.34 4 0.68 4 0 4 C0 3.34 0 2.68 0 2 C-3.3 2.33 -6.6 2.66 -10 3 C-10 2.34 -10 1.68 -10 1 C-6.24928186 -0.82177738 -3.99362668 -1.36624071 0 0 Z " fill="#725D74" transform="translate(643,347)"/>
<path d="M0 0 C0.66 0 1.32 0 2 0 C2 5.61 2 11.22 2 17 C1.34 17 0.68 17 0 17 C0 11.39 0 5.78 0 0 Z " fill="#57365B" transform="translate(547,347)"/>
<path d="M0 0 C0.66 0 1.32 0 2 0 C1.34 6.27 0.68 12.54 0 19 C-2.49568167 15.25647749 -2.06103173 12.64852433 -1.6875 8.375 C-1.63916016 7.68148437 -1.59082031 6.98796875 -1.54101562 6.2734375 C-1.14539517 1.14539517 -1.14539517 1.14539517 0 0 Z " fill="#CB4A8D" transform="translate(84,109)"/>
<path d="M0 0 C2 2 2 2 2.046875 3.98828125 C1.49925341 8.27558189 0.90566194 12.06163199 -1 16 C-1.66 15.67 -2.32 15.34 -3 15 C-2.67 13.989375 -2.34 12.97875 -2 11.9375 C-0.92433543 8.24413424 -0.92308751 4.84562451 -1 1 C-0.67 0.67 -0.34 0.34 0 0 Z " fill="#6D406F" transform="translate(795,58)"/>
<path d="M0 0 C0.33 0.66 0.66 1.32 1 2 C1.66 2 2.32 2 3 2 C3 2.66 3 3.32 3 4 C3.99 4 4.98 4 6 4 C6.99 5.98 7.98 7.96 9 10 C6 10 6 10 4.17578125 8.46875 C3.56089844 7.8190625 2.94601563 7.169375 2.3125 6.5 C1.68988281 5.8503125 1.06726563 5.200625 0.42578125 4.53125 C-0.04472656 4.0259375 -0.51523438 3.520625 -1 3 C-0.67 2.01 -0.34 1.02 0 0 Z " fill="#724875" transform="translate(153,57)"/>
<path d="M0 0 C0.556875 0.268125 1.11375 0.53625 1.6875 0.8125 C0.90375 1.1425 0.12 1.4725 -0.6875 1.8125 C-4.47107223 4.6952217 -4.48197258 7.20684793 -5.3125 11.8125 C-5.9725 11.4825 -6.6325 11.1525 -7.3125 10.8125 C-7.79127076 6.69507146 -7.63415374 5.23243683 -5.0625 1.875 C-2.3125 -0.1875 -2.3125 -0.1875 0 0 Z " fill="#654D67" transform="translate(601.3125,347.1875)"/>
<path d="M0 0 C1.12894876 0.93274109 2.25300876 1.87140122 3.375 2.8125 C4.00148438 3.33457031 4.62796875 3.85664063 5.2734375 4.39453125 C7 6 7 6 9 9 C6 10 6 10 3.9375 9 C1.31347732 6.29133142 0.82075126 3.62498473 0 0 Z " fill="#D03348" transform="translate(114,212)"/>
<path d="M0 0 C0.66 0 1.32 0 2 0 C5.44419134 9.41002278 5.44419134 9.41002278 5 14 C3 13 3 13 2.1484375 10.8203125 C1.89320313 9.93085938 1.63796875 9.04140625 1.375 8.125 C1.11460937 7.24070312 0.85421875 6.35640625 0.5859375 5.4453125 C0 3 0 3 0 0 Z " fill="#69456F" transform="translate(512,347)"/>
<path d="M0 0 C3.63559661 3.43361902 6.36113346 6.7973607 9 11 C8.34 11 7.68 11 7 11 C6.67 11.66 6.34 12.32 6 13 C3.04502847 10.55893657 2.61879065 8.7127439 2 5 C1.36562656 3.3207762 0.70710678 1.64991582 0 0 Z " fill="#D3374F" transform="translate(102,197)"/>
<path d="M0 0 C0.33 0.99 0.66 1.98 1 3 C1.639375 3.309375 2.27875 3.61875 2.9375 3.9375 C5.45468915 5.2342338 5.96886948 6.4221737 7 9 C4 9 4 9 2.39453125 7.46875 C1.87246094 6.8190625 1.35039062 6.169375 0.8125 5.5 C0.28269531 4.8503125 -0.24710938 4.200625 -0.79296875 3.53125 C-1.19128906 3.0259375 -1.58960938 2.520625 -2 2 C-1.34 2 -0.68 2 0 2 C0 1.34 0 0.68 0 0 Z " fill="#714274" transform="translate(163,66)"/>
<path d="M0 0 C0.33 0.99 0.66 1.98 1 3 C3.00016466 4.20882096 3.00016466 4.20882096 5 5 C5 5.66 5 6.32 5 7 C5.66 7 6.32 7 7 7 C6.67 7.99 6.34 8.98 6 10 C4.85073734 9.04578192 3.70569459 8.08647955 2.5625 7.125 C1.92441406 6.59132812 1.28632813 6.05765625 0.62890625 5.5078125 C-1 4 -1 4 -2 2 C-1.34 2 -0.68 2 0 2 C0 1.34 0 0.68 0 0 Z " fill="#704172" transform="translate(259,162)"/>
<path d="M0 0 C2 1 2 1 2.6875 3 C2.790625 3.66 2.89375 4.32 3 5 C2 6 2 6 -0.06640625 6.09765625 C-0.89011719 6.08605469 -1.71382812 6.07445312 -2.5625 6.0625 C-3.38878906 6.05347656 -4.21507812 6.04445313 -5.06640625 6.03515625 C-5.70449219 6.02355469 -6.34257813 6.01195312 -7 6 C-7.33 5.34 -7.66 4.68 -8 4 C-5.36 4 -2.72 4 0 4 C0 2.68 0 1.36 0 0 Z " fill="#5F3C62" transform="translate(768,350)"/>
<path d="M0 0 C1.43489809 -0.13536774 2.87347107 -0.23217143 4.3125 -0.3125 C5.11300781 -0.37050781 5.91351562 -0.42851563 6.73828125 -0.48828125 C7.48464844 -0.32714844 8.23101563 -0.16601562 9 0 C9.99 1.65 10.98 3.3 12 5 C6.06 3.515 6.06 3.515 0 2 C0 1.34 0 0.68 0 0 Z " fill="#744473" transform="translate(646,67)"/>
<path d="M0 0 C0.66 0 1.32 0 2 0 C0.83857315 4.35535069 -0.07699505 6.64619703 -4 9 C-3.4739075 5.21213403 -2.61896089 2.82847776 0 0 Z " fill="#633465" transform="translate(555,60)"/>
<path d="M0 0 C1.875 1.5 1.875 1.5 3 3 C1.72125 2.95875 0.4425 2.9175 -0.875 2.875 C-3.01871492 2.75787127 -3.01871492 2.75787127 -5 3 C-5.66 3.66 -6.32 4.32 -7 5 C-7.66 4.67 -8.32 4.34 -9 4 C-8.67 3.01 -8.34 2.02 -8 1 C-5.20129973 -0.39935013 -3.09501208 -0.25265405 0 0 Z " fill="#633866" transform="translate(566,55)"/>
<path d="M0 0 C0 0.99 0 1.98 0 3 C-0.66 3 -1.32 3 -2 3 C-2 2.34 -2 1.68 -2 1 C-3.3921875 1.2475 -3.3921875 1.2475 -4.8125 1.5 C-8 2 -8 2 -11 2 C-7.2440582 -2.11365054 -5.00383596 -2.29905976 0 0 Z " fill="#715973" transform="translate(588,348)"/>
<path d="M0 0 C1.0625 1.8125 1.0625 1.8125 2 4 C1.67 4.99 1.34 5.98 1 7 C0.34 7 -0.32 7 -1 7 C-1.33 7.66 -1.66 8.32 -2 9 C-2.99 8.34 -3.98 7.68 -5 7 C-3.35 4.69 -1.7 2.38 0 0 Z " fill="#6E3D72" transform="translate(532,91)"/>
<path d="M0 0 C2.69504819 2.69504819 5 6.08360477 5 10 C4.01 10 3.02 10 2 10 C1.01 7.03 0.02 4.06 -1 1 C-0.67 0.67 -0.34 0.34 0 0 Z " fill="#794E7B" transform="translate(476,354)"/>
<path d="M0 0 C0.99 0 1.98 0 3 0 C2.38545304 3.99455527 0.29353263 6.74466336 -2 10 C-2.33 8.68 -2.66 7.36 -3 6 C-2.34 6 -1.68 6 -1 6 C-1.0309375 4.7934375 -1.0309375 4.7934375 -1.0625 3.5625 C-1 1 -1 1 0 0 Z " fill="#6A3F6D" transform="translate(539,105)"/>
<path d="M0 0 C0.78375 0.04125 1.5675 0.0825 2.375 0.125 C2.045 3.095 1.715 6.065 1.375 9.125 C1.045 9.125 0.715 9.125 0.375 9.125 C0.375 6.815 0.375 4.505 0.375 2.125 C-1.275 2.125 -2.925 2.125 -4.625 2.125 C-2.625 0.125 -2.625 0.125 0 0 Z " fill="#C03682" transform="translate(84.625,99.875)"/>
<path d="M0 0 C1.5625 1.6875 1.5625 1.6875 3 4 C2.6875 6.75 2.6875 6.75 2 9 C0.68 8.67 -0.64 8.34 -2 8 C-1.34 5.36 -0.68 2.72 0 0 Z " fill="#6E3473" transform="translate(275,86)"/>
<path d="M0 0 C0.33 0 0.66 0 1 0 C1.34684009 5.28931132 1.34684009 5.28931132 1 8 C-0.8125 10.0625 -0.8125 10.0625 -3 11 C-3.99 10.67 -4.98 10.34 -6 10 C-5.195625 9.278125 -4.39125 8.55625 -3.5625 7.8125 C-0.97707928 4.97484311 -0.31957187 3.72833853 0 0 Z " fill="#614262" transform="translate(694,353)"/>
<path d="M0 0 C4.455 0.99 4.455 0.99 9 2 C8.67 2.66 8.34 3.32 8 4 C6.33388095 4.042721 4.66617115 4.04063832 3 4 C2.67 3.67 2.34 3.34 2 3 C1.34 3.66 0.68 4.32 0 5 C0 3.35 0 1.7 0 0 Z " fill="#7D5B81" transform="translate(680,360)"/>
<path d="M0 0 C0.33 0.66 0.66 1.32 1 2 C1.99 1.67 2.98 1.34 4 1 C3.67 3.31 3.34 5.62 3 8 C2.731875 7.360625 2.46375 6.72125 2.1875 6.0625 C1.11332248 3.66868314 1.11332248 3.66868314 -2 3 C-1.34 2.01 -0.68 1.02 0 0 Z " fill="#6F3374" transform="translate(524,102)"/>
<path d="M0 0 C0.66 0.33 1.32 0.66 2 1 C1.34 2.98 0.68 4.96 0 7 C-0.99 6.67 -1.98 6.34 -3 6 C-2.67 4.68 -2.34 3.36 -2 2 C-1.34 2 -0.68 2 0 2 C0 1.34 0 0.68 0 0 Z " fill="#7E5384" transform="translate(519,357)"/>
<path d="M0 0 C1.485 0.99 1.485 0.99 3 2 C3.40843923 4.71203652 3.13336867 7.2437142 3 10 C2.34 10 1.68 10 1 10 C0.67 6.7 0.34 3.4 0 0 Z " fill="#5E425D" transform="translate(714,349)"/>
<path d="M0 0 C5.75 1.75 5.75 1.75 8 4 C5.36 4 2.72 4 0 4 C0 2.68 0 1.36 0 0 Z " fill="#B05E65" transform="translate(141,234)"/>
<path d="M0 0 C1.65 0 3.3 0 5 0 C5 3 5 3 3.5 4.6875 C3.005 5.120625 2.51 5.55375 2 6 C1.34 4.02 0.68 2.04 0 0 Z " fill="#6E3673" transform="translate(530,114)"/>
<path d="M0 0 C0.99 0.33 1.98 0.66 3 1 C3.875 2.875 3.875 2.875 4 5 C2.5625 6.75 2.5625 6.75 1 8 C-0.42944945 5.64561267 -1.08661261 4.51967567 -0.625 1.75 C-0.41875 1.1725 -0.2125 0.595 0 0 Z " fill="#6F3476" transform="translate(545,93)"/>
<path d="M0 0 C2.64 0.66 5.28 1.32 8 2 C7.67 2.99 7.34 3.98 7 5 C4.0625 4.1875 4.0625 4.1875 1 3 C0.67 2.01 0.34 1.02 0 0 Z " fill="#775676" transform="translate(662,360)"/>
<path d="M0 0 C0.99 0 1.98 0 3 0 C3.66 2.31 4.32 4.62 5 7 C4.34 7.66 3.68 8.32 3 9 C2.01 6.03 1.02 3.06 0 0 Z " fill="#6E516E" transform="translate(614,347)"/>
<path d="M0 0 C0.66 0.33 1.32 0.66 2 1 C2 1.66 2 2.32 2 3 C2.66 3.66 3.32 4.32 4 5 C-2.75 4.25 -2.75 4.25 -5 2 C-3.35 2 -1.7 2 0 2 C0 1.34 0 0.68 0 0 Z " fill="#6E3E71" transform="translate(393,156)"/>
<path d="M0 0 C1.5625 1.25 1.5625 1.25 3 3 C2.75 4.9375 2.75 4.9375 2 7 C1.65805312 8.33115034 1.323482 9.66424243 1 11 C-1.125 3.375 -1.125 3.375 0 0 Z " fill="#6F3D72" transform="translate(674,84)"/>
<path d="M0 0 C0.66 0 1.32 0 2 0 C1.01 2.97 0.02 5.94 -1 9 C-3 6 -3 6 -2.75 3.9375 C-2 2 -2 2 0 0 Z " fill="#5E2E61" transform="translate(606,66)"/>
<path d="M0 0 C2.97 0 5.94 0 9 0 C9 0.66 9 1.32 9 2 C6.03 2 3.06 2 0 2 C0 1.34 0 0.68 0 0 Z " fill="#6F516E" transform="translate(650,354)"/>
<path d="M0 0 C0.99 0 1.98 0 3 0 C3.66 2.64 4.32 5.28 5 8 C4.01 7.67 3.02 7.34 2 7 C0.8125 3.4375 0.8125 3.4375 0 0 Z " fill="#6F5072" transform="translate(486,347)"/>
<path d="M0 0 C2 1 2 1 3 3 C-0.13498292 4.85776765 -2.37471432 5.20140476 -6 5 C-4.68 4.67 -3.36 4.34 -2 4 C-2 3.01 -2 2.02 -2 1 C-1.34 0.67 -0.68 0.34 0 0 Z " fill="#6F4272" transform="translate(462,156)"/>
<path d="M0 0 C0.99 0 1.98 0 3 0 C1.70700306 2.88437779 0.34058637 4.87219421 -2 7 C-2 5.35 -2 3.7 -2 2 C-1.34 2 -0.68 2 0 2 C0 1.34 0 0.68 0 0 Z " fill="#6A3F6D" transform="translate(508,149)"/>
<path d="M0 0 C2.35953094 2.35953094 2.49141413 3.77895617 3 7 C2.01 7 1.02 7 0 7 C-0.93423645 3.98968256 -1.04449911 3.13349732 0 0 Z " fill="#713E73" transform="translate(725,70)"/>
<path d="M0 0 C1.65 1.65 3.3 3.3 5 5 C3.02 5.33 1.04 5.66 -1 6 C-0.67 4.02 -0.34 2.04 0 0 Z " fill="#794478" transform="translate(675,63)"/>
<path d="M0 0 C0.99 0.33 1.98 0.66 3 1 C2.34 3.31 1.68 5.62 1 8 C0.34 7.67 -0.32 7.34 -1 7 C-0.67 4.69 -0.34 2.38 0 0 Z " fill="#705772" transform="translate(533,347)"/>
<path d="M0 0 C0.66 0 1.32 0 2 0 C1.25 6.75 1.25 6.75 -1 9 C-0.67 6.03 -0.34 3.06 0 0 Z " fill="#605061" transform="translate(508,347)"/>
<path d="M0 0 C1.485 0.99 1.485 0.99 3 2 C3 2.66 3 3.32 3 4 C3.66 4 4.32 4 5 4 C4.67 4.99 4.34 5.98 4 7 C2 5.75 2 5.75 0 4 C0 2.68 0 1.36 0 0 Z " fill="#744678" transform="translate(245,149)"/>
<path d="M0 0 C0.99 0.33 1.98 0.66 3 1 C1.515 4.465 1.515 4.465 0 8 C-0.66 7.67 -1.32 7.34 -2 7 C-1.34 4.69 -0.68 2.38 0 0 Z " fill="#734378" transform="translate(846,86)"/>
<path d="M0 0 C0.33 0.99 0.66 1.98 1 3 C-0.4375 5.6875 -0.4375 5.6875 -2 8 C-2.99 7.67 -3.98 7.34 -5 7 C-3.35 4.69 -1.7 2.38 0 0 Z " fill="#6C426E" transform="translate(550,66)"/>
<path d="M0 0 C0.66 0 1.32 0 2 0 C2.33 0.99 2.66 1.98 3 3 C1.68 3 0.36 3 -1 3 C-0.67 2.01 -0.34 1.02 0 0 Z " fill="#87718A" transform="translate(547,338)"/>
<path d="M0 0 C0.99 0 1.98 0 3 0 C3 0.99 3 1.98 3 3 C2.01 3 1.02 3 0 3 C0 2.01 0 1.02 0 0 Z " fill="#5E4B63" transform="translate(746,361)"/>
<path d="M0 0 C0.99 0.33 1.98 0.66 3 1 C2.67 1.66 2.34 2.32 2 3 C1.01 2.67 0.02 2.34 -1 2 C-0.67 1.34 -0.34 0.68 0 0 Z " fill="#584659" transform="translate(538,361)"/>
<path d="" fill="#959784" transform="translate(0,0)"/>
</svg>
